{"glyphs":{"0":{"ha":764,"x_min":64,"x_max":700,"o":"m 64 444 q 64 552 64 444 q 153 783 64 660 q 383 907 243 907 q 612 783 524 907 q 700 444 700 660 q 613 107 700 228 q 384 -14 525 -14 q 153 107 243 -14 q 64 444 64 228 m 164 444 q 164 351 164 444 q 227 142 164 258 q 384 26 290 26 q 539 142 478 26 q 600 444 600 257 q 539 751 600 631 q 384 871 478 871 q 227 751 290 871 q 164 444 164 631 z "},"1":{"ha":764,"x_min":135,"x_max":628,"o":"m 461 314 q 478 83 461 119 q 497 49 486 65 q 526 28 507 33 q 625 17 565 17 l 628 0 l 197 0 l 200 17 q 266 19 242 17 q 310 35 290 22 q 340 63 331 47 q 356 118 349 79 q 364 314 364 174 l 364 681 q 303 775 364 775 q 146 725 258 775 l 135 751 q 446 908 375 860 l 461 901 l 461 314 z "},"2":{"ha":764,"x_min":103,"x_max":660,"o":"m 643 199 l 660 199 l 660 0 l 103 0 l 103 18 q 418 394 301 214 q 535 696 535 575 q 494 822 535 774 q 379 871 454 871 q 297 849 332 871 q 246 800 263 826 q 209 751 229 774 q 168 729 189 729 q 134 742 147 729 q 121 775 121 756 q 197 867 121 828 q 381 907 274 907 q 563 856 488 907 q 638 690 638 804 q 506 394 638 560 q 371 238 435 307 q 193 56 307 169 q 531 85 418 56 q 643 199 643 114 z "},"3":{"ha":764,"x_min":86,"x_max":653,"o":"m 653 263 q 559 65 653 143 q 342 -14 465 -14 q 86 94 174 -14 l 114 121 q 325 38 186 38 q 483 93 417 38 q 550 243 550 149 q 218 463 550 463 l 218 489 q 419 547 326 489 q 511 714 511 604 q 475 827 511 783 q 369 871 439 871 q 293 848 326 871 q 243 799 260 825 q 205 749 226 772 q 161 726 183 726 q 125 741 139 726 q 111 775 111 756 q 187 868 111 829 q 369 907 263 907 q 545 862 476 907 q 614 722 614 817 q 549 569 614 628 q 399 488 485 511 l 399 482 q 590 410 528 475 q 653 263 653 346 z "},"4":{"ha":764,"x_min":46,"x_max":728,"o":"m 46 194 l 46 238 l 515 908 l 556 901 l 556 236 l 728 236 l 728 194 l 557 194 q 592 48 561 79 q 719 17 622 17 l 722 0 l 292 0 l 294 17 q 422 47 392 17 q 457 194 451 78 l 46 194 m 458 314 l 458 751 l 97 236 l 457 236 q 458 314 458 260 z "},"5":{"ha":764,"x_min":96,"x_max":663,"o":"m 360 524 q 578 459 493 524 q 663 269 663 394 q 569 65 663 143 q 351 -14 475 -14 q 96 94 183 -14 l 124 121 q 335 38 196 38 q 493 93 426 38 q 560 255 560 149 q 496 416 560 361 q 321 471 432 471 q 176 453 249 471 l 149 481 l 171 865 q 524 895 440 879 q 607 967 607 911 l 624 967 l 624 799 l 218 799 l 201 503 q 360 524 281 524 z "},"6":{"ha":764,"x_min":86,"x_max":683,"o":"m 410 907 q 584 868 513 907 q 656 775 656 829 q 640 741 656 756 q 604 726 625 726 q 563 749 583 726 q 526 799 542 772 q 481 848 511 825 q 411 871 450 871 q 249 747 311 871 q 186 418 186 624 q 247 119 186 213 q 396 26 307 26 q 531 92 485 26 q 576 267 576 157 q 530 428 576 376 q 411 479 483 479 q 267 454 339 479 l 254 494 q 424 525 335 525 q 620 455 557 525 q 683 265 683 385 q 599 65 683 144 q 388 -14 514 -14 q 174 94 261 -14 q 86 424 86 203 q 172 776 86 644 q 410 907 257 907 z "},"7":{"ha":764,"x_min":139,"x_max":710,"o":"m 388 189 q 396 116 388 165 q 404 44 404 67 q 385 3 404 21 q 339 -14 365 -14 q 293 7 313 -14 q 274 65 274 28 q 382 433 274 201 q 633 838 490 665 q 256 808 356 838 q 156 690 156 779 l 139 692 l 139 893 l 710 893 l 710 875 q 474 508 561 697 q 388 189 388 318 z "},"8":{"ha":764,"x_min":92,"x_max":671,"o":"m 671 229 q 590 53 671 119 q 381 -14 510 -14 q 172 53 253 -14 q 92 229 92 119 q 161 383 92 326 q 314 464 222 432 l 314 469 q 176 555 232 496 q 121 705 121 614 q 194 851 121 796 q 381 907 268 907 q 568 851 493 907 q 643 705 643 796 q 592 562 643 614 q 453 474 542 510 l 453 468 q 671 229 671 406 m 381 871 q 345 871 381 871 q 267 822 310 871 q 224 691 224 772 q 281 556 224 610 q 411 492 338 503 q 497 561 453 508 q 540 694 540 614 q 496 823 540 775 q 381 871 451 871 m 384 28 q 423 28 384 28 q 515 83 463 28 q 568 228 568 138 q 501 378 568 319 q 346 447 433 436 q 267 396 304 431 q 194 232 194 325 q 250 83 194 139 q 384 28 306 28 z "},"9":{"ha":764,"x_min":85,"x_max":683,"o":"m 124 121 q 321 38 203 38 q 511 158 439 38 q 583 483 583 278 q 525 778 583 689 q 377 867 467 867 q 240 804 288 867 q 192 637 192 742 q 240 482 192 532 q 358 432 289 432 q 488 454 426 432 l 500 414 q 339 383 418 383 q 156 449 226 383 q 85 637 85 514 q 172 833 85 760 q 388 907 260 907 q 600 799 517 907 q 683 472 683 692 q 583 119 683 253 q 333 -14 483 -14 q 96 94 183 -14 l 124 121 z "},"\u0000":{"ha":694,"x_min":0,"x_max":0,"o":""}," ":{"ha":347,"x_min":0,"x_max":0,"o":""},"!":{"ha":339,"x_min":97,"x_max":243,"o":"m 108 918 q 124 965 108 946 q 170 985 139 985 q 217 965 201 985 q 232 918 232 946 q 210 590 232 832 q 188 243 188 347 l 153 243 q 131 590 153 347 q 108 918 108 832 m 97 59 q 97 75 97 59 q 119 112 97 90 q 171 133 140 133 q 222 112 201 133 q 243 59 243 90 q 222 7 243 28 q 170 -14 200 -14 q 119 7 140 -14 q 97 59 97 28 z "},"\"":{"ha":410,"x_min":35,"x_max":375,"o":"m 35 957 q 53 1002 35 983 q 96 1021 71 1021 q 140 1002 121 1021 q 158 957 158 983 q 108 664 158 886 l 86 664 q 35 957 35 869 m 251 957 q 269 1002 251 983 q 313 1021 288 1021 q 356 1002 338 1021 q 375 957 375 983 q 325 664 375 886 l 303 664 q 251 957 251 869 z "},"#":{"ha":1006,"x_min":111,"x_max":894,"o":"m 501 -56 l 596 285 l 319 285 l 225 -56 l 154 -56 l 249 285 l 111 285 l 129 351 l 268 351 l 319 535 l 179 535 l 197 601 l 338 601 l 435 949 l 506 949 l 408 601 l 685 601 l 782 949 l 853 949 l 756 601 l 894 601 l 876 535 l 738 535 l 686 351 l 825 351 l 807 285 l 667 285 l 572 -56 l 501 -56 m 390 535 l 339 351 l 615 351 l 667 535 l 390 535 z "},"$":{"ha":764,"x_min":118,"x_max":650,"o":"m 333 425 q 176 545 232 485 q 121 697 121 606 q 194 848 121 789 q 375 907 267 907 l 382 990 l 432 990 l 425 904 q 607 854 525 894 q 588 635 607 760 l 569 639 q 527 793 569 738 q 421 865 485 849 l 392 519 q 596 375 554 429 q 650 225 650 303 q 563 46 650 106 q 346 -14 476 -14 l 339 -97 l 289 -97 l 296 -8 q 118 67 182 7 q 133 274 118 136 l 153 271 q 193 112 153 172 q 300 32 233 51 l 333 425 m 564 193 q 518 300 564 256 q 381 397 472 344 l 349 24 q 564 193 564 24 m 371 871 q 252 829 297 869 q 207 728 207 789 q 242 626 207 667 q 343 546 278 585 l 371 871 z "},"%":{"ha":1385,"x_min":167,"x_max":1218,"o":"m 447 -56 l 867 949 l 938 949 l 518 -56 l 447 -56 m 167 624 q 167 690 167 624 q 222 830 167 756 q 366 904 278 904 q 509 830 454 904 q 564 624 564 756 q 509 420 564 493 q 366 347 454 347 q 222 420 278 347 q 167 624 167 493 m 281 449 q 298 416 281 449 q 367 382 315 382 q 451 449 418 382 q 483 625 483 517 q 450 803 483 733 q 367 872 417 872 q 282 803 317 872 q 247 625 247 733 q 281 449 247 517 m 821 269 q 821 334 821 269 q 876 474 821 400 q 1020 549 932 549 q 1163 474 1108 549 q 1218 269 1218 400 q 1163 65 1218 138 q 1020 -8 1108 -8 q 876 65 932 -8 q 821 269 821 138 m 935 94 q 952 60 935 94 q 1021 26 969 26 q 1105 94 1072 26 q 1138 269 1138 161 q 1104 447 1138 378 q 1021 517 1071 517 q 936 447 971 517 q 901 269 901 378 q 935 94 901 161 z "},"&":{"ha":1092,"x_min":42,"x_max":1078,"o":"m 350 -14 q 122 62 203 -14 q 42 269 42 138 q 124 462 42 374 q 328 597 207 550 q 318 697 318 653 q 385 892 318 814 q 560 971 453 971 q 683 925 635 971 q 731 807 731 879 q 676 677 731 735 q 500 615 622 619 q 746 560 606 560 q 921 624 832 560 q 985 653 961 653 q 1017 618 1017 653 q 990 577 1017 596 q 921 547 963 558 q 779 525 840 528 q 704 193 775 326 q 888 73 783 128 q 1075 17 993 18 l 1078 0 l 868 0 q 654 118 779 19 q 350 -14 542 -14 m 371 28 q 619 146 540 28 q 439 343 517 232 q 332 576 361 454 q 153 268 153 475 q 216 91 153 154 q 371 28 279 28 m 551 946 q 456 878 494 946 q 418 707 418 811 q 478 474 418 603 q 663 229 538 344 q 718 526 715 357 q 482 615 581 539 l 482 628 q 597 678 550 628 q 643 796 643 729 q 619 904 643 863 q 551 946 594 946 z "},"'":{"ha":193,"x_min":35,"x_max":158,"o":"m 35 957 q 53 1002 35 983 q 96 1021 71 1021 q 140 1002 121 1021 q 158 957 158 983 q 108 664 158 886 l 86 664 q 35 957 35 869 z "},"(":{"ha":358,"x_min":21,"x_max":329,"o":"m 146 640 q 135 592 146 640 q 124 443 124 544 q 144 247 124 342 q 196 89 165 153 q 308 -93 258 -40 l 329 -115 l 300 -143 q 209 -53 264 -117 q 117 74 154 11 q 51 238 81 138 q 21 443 21 338 q 49 648 21 549 q 119 814 78 747 q 272 1006 201 946 l 300 1031 l 329 1003 q 260 914 299 972 q 195 796 222 856 q 146 640 168 736 z "},")":{"ha":358,"x_min":29,"x_max":338,"o":"m 308 649 q 323 599 308 649 q 338 443 338 549 q 309 238 338 338 q 239 72 281 139 q 86 -119 151 -67 l 58 -143 l 29 -115 q 98 -27 60 -85 q 163 90 136 31 q 213 246 190 150 q 235 443 235 342 q 214 639 235 544 q 163 797 193 733 q 50 981 101 924 l 29 1003 l 58 1031 q 149 939 94 1003 q 241 812 204 875 q 308 649 278 749 z "},"*":{"ha":639,"x_min":69,"x_max":568,"o":"m 333 740 q 479 688 431 697 q 548 667 528 679 q 568 631 568 654 q 553 592 568 608 q 523 575 538 575 q 494 583 508 575 q 446 629 479 592 q 326 729 413 667 q 353 576 338 624 q 369 508 369 528 q 355 474 369 488 q 318 461 340 461 q 282 474 296 461 q 268 508 268 488 q 285 576 268 528 q 313 729 301 624 q 188 625 208 654 q 118 575 150 575 q 85 591 100 575 q 69 630 69 607 q 90 666 69 653 q 159 689 110 679 q 306 740 208 699 q 159 794 208 783 q 90 817 110 804 q 69 852 69 829 q 85 891 69 875 q 116 907 100 907 q 144 900 132 907 q 168 882 157 893 q 188 858 179 871 q 313 753 210 828 q 285 907 301 860 q 268 974 268 954 q 282 1007 268 993 q 318 1021 296 1021 q 355 1007 340 1021 q 369 974 369 993 q 353 907 369 954 q 326 753 338 860 q 446 853 413 815 q 493 899 479 892 q 522 907 507 907 q 553 891 538 907 q 568 852 568 875 q 548 817 568 829 q 479 794 528 804 q 333 740 431 783 z "},"+":{"ha":764,"x_min":136,"x_max":628,"o":"m 136 410 l 136 476 l 349 476 l 349 689 l 415 689 l 415 476 l 628 476 l 628 410 l 415 410 l 415 197 l 349 197 l 349 410 l 136 410 z "},",":{"ha":253,"x_min":47,"x_max":210,"o":"m 146 -50 q 114 -15 146 -24 q 47 60 47 0 q 69 113 47 92 q 124 133 90 133 q 184 105 158 133 q 210 17 210 76 q 176 -100 210 -42 q 78 -200 142 -158 l 57 -174 q 146 -50 146 -115 z "},"-":{"ha":526,"x_min":49,"x_max":478,"o":"m 49 385 l 49 454 l 478 454 l 478 385 l 49 385 z "},".":{"ha":240,"x_min":47,"x_max":193,"o":"m 47 59 q 47 75 47 59 q 69 112 47 90 q 121 133 90 133 q 172 112 151 133 q 193 59 193 90 q 172 7 193 28 q 120 -14 150 -14 q 69 7 90 -14 q 47 59 47 28 z "},"/":{"ha":457,"x_min":21,"x_max":400,"o":"m 21 -118 l 315 931 l 400 931 l 106 -118 l 21 -118 z "},":":{"ha":240,"x_min":47,"x_max":193,"o":"m 47 59 q 47 75 47 59 q 69 112 47 90 q 121 133 90 133 q 172 112 151 133 q 193 59 193 90 q 172 7 193 28 q 120 -14 150 -14 q 69 7 90 -14 q 47 59 47 28 m 47 569 q 47 584 47 569 q 69 622 47 600 q 121 643 90 643 q 172 622 151 643 q 193 569 193 600 q 172 517 193 538 q 120 496 150 496 q 69 517 90 496 q 47 569 47 538 z "},";":{"ha":240,"x_min":47,"x_max":210,"o":"m 146 -50 q 114 -15 146 -24 q 47 60 47 0 q 69 113 47 92 q 124 133 90 133 q 184 105 158 133 q 210 17 210 76 q 176 -100 210 -42 q 78 -200 142 -158 l 57 -174 q 146 -50 146 -115 m 47 569 q 47 584 47 569 q 69 622 47 600 q 121 643 90 643 q 172 622 151 643 q 193 569 193 600 q 172 517 193 538 q 120 496 150 496 q 69 517 90 496 q 47 569 47 538 z "},"<":{"ha":764,"x_min":136,"x_max":628,"o":"m 136 410 l 136 476 l 628 671 l 628 604 l 211 443 l 628 282 l 628 215 l 136 410 z "},"=":{"ha":764,"x_min":136,"x_max":628,"o":"m 136 535 l 136 601 l 628 601 l 628 535 l 136 535 m 136 285 l 136 351 l 628 351 l 628 285 l 136 285 z "},">":{"ha":764,"x_min":136,"x_max":628,"o":"m 628 476 l 628 410 l 136 215 l 136 282 l 551 443 l 136 604 l 136 671 l 628 476 z "},"?":{"ha":504,"x_min":28,"x_max":482,"o":"m 28 829 q 103 934 28 883 q 274 985 178 985 q 426 940 369 985 q 482 808 482 896 q 378 606 482 722 q 292 514 335 558 q 188 347 188 404 q 247 242 188 290 l 222 215 q 122 389 122 301 q 215 567 122 471 q 293 644 254 606 q 386 825 386 740 q 275 949 386 949 q 188 922 221 949 q 144 864 156 896 q 69 779 118 779 q 40 793 53 779 q 28 829 28 807 m 151 59 q 151 75 151 59 q 173 112 151 90 q 225 133 194 133 q 276 112 256 133 q 297 59 297 90 q 276 7 297 28 q 224 -14 254 -14 q 173 7 194 -14 q 151 59 151 28 z "},"@":{"ha":1101,"x_min":111,"x_max":1032,"o":"m 776 150 q 681 249 681 150 q 696 324 681 278 l 689 324 q 617 202 665 254 q 492 150 568 150 q 374 198 415 150 q 332 328 332 246 q 428 539 332 428 q 557 626 475 592 q 740 661 639 661 l 850 654 q 799 440 819 551 q 778 275 778 328 q 817 190 778 190 q 942 269 879 190 q 1006 454 1006 347 q 891 731 1004 633 q 605 828 778 828 q 324 700 432 828 q 215 383 215 572 q 323 72 215 194 q 601 -51 431 -51 q 864 10 744 -51 l 864 -26 q 589 -92 750 -92 q 251 49 392 -92 q 111 386 111 189 q 251 724 111 583 q 591 864 392 864 q 911 756 790 864 q 1032 454 1032 649 q 949 234 1032 318 q 776 150 867 150 m 440 313 q 463 225 440 260 q 531 190 486 190 q 615 242 575 190 q 681 375 656 294 q 735 626 722 517 q 599 592 658 626 q 506 508 539 558 q 440 313 440 406 z "},"A":{"ha":910,"x_min":-50,"x_max":960,"o":"m 615 17 q 690 25 668 17 q 711 68 711 33 q 638 304 711 103 l 214 304 q 154 83 154 128 q 177 27 154 38 q 260 17 200 17 l 263 0 l -50 0 l -47 17 q 16 24 -7 17 q 66 60 39 31 q 118 147 93 90 q 178 307 143 204 l 301 664 q 367 893 367 853 q 347 945 367 933 q 272 957 328 957 l 269 972 l 499 972 l 744 307 q 828 97 807 142 q 869 40 850 53 q 957 17 904 17 l 960 0 l 613 0 l 615 17 m 421 897 l 225 338 l 626 338 l 421 897 z "},"B":{"ha":858,"x_min":69,"x_max":793,"o":"m 793 272 q 687 67 793 133 q 396 0 581 0 l 69 0 l 72 17 q 126 19 107 17 q 163 35 146 22 q 188 63 181 47 q 201 117 196 79 q 208 314 208 165 l 208 658 q 189 908 208 867 q 163 938 181 925 q 126 953 146 950 q 72 956 107 956 l 69 972 l 381 972 q 589 936 483 972 q 686 869 649 917 q 724 753 724 821 q 657 607 724 660 q 497 533 590 554 q 692 467 606 522 q 765 386 738 436 q 793 272 793 336 m 603 753 q 306 940 603 940 l 306 543 l 318 543 q 603 753 603 543 m 672 272 q 326 515 672 515 l 306 515 l 306 293 q 315 95 306 142 q 360 32 324 49 q 488 49 429 32 q 583 89 547 65 q 645 160 618 113 q 672 272 672 207 z "},"C":{"ha":989,"x_min":69,"x_max":947,"o":"m 947 107 q 565 -14 788 -14 q 206 129 342 -14 q 69 486 69 272 q 201 842 69 700 q 554 985 332 985 q 760 957 657 985 q 915 900 863 929 l 915 722 l 900 725 q 780 901 865 850 q 554 953 694 953 q 283 824 376 953 q 190 489 190 696 q 289 154 190 282 q 565 26 388 26 q 778 58 693 26 q 947 149 864 89 l 947 107 z "},"D":{"ha":1061,"x_min":69,"x_max":1013,"o":"m 350 972 q 708 931 589 972 q 824 875 763 911 q 923 789 885 839 q 987 661 961 739 q 1013 487 1013 583 q 987 313 1013 390 q 923 186 961 236 q 828 99 885 136 q 722 44 772 63 q 611 15 672 26 q 443 0 529 0 l 69 0 l 72 17 q 174 43 142 17 q 208 314 208 72 l 208 658 q 199 862 208 807 q 174 931 190 917 q 72 957 142 957 l 69 972 l 350 972 m 357 33 q 426 32 374 32 q 540 43 478 32 q 667 85 601 54 q 781 165 733 117 q 860 297 829 214 q 892 485 892 379 q 861 674 892 592 q 782 805 831 756 q 668 886 733 854 q 414 940 553 940 q 306 932 351 940 l 306 297 q 314 99 306 147 q 357 33 322 50 z "},"E":{"ha":856,"x_min":69,"x_max":769,"o":"m 769 0 l 69 0 l 72 17 q 174 43 142 17 q 208 314 208 72 l 208 658 q 199 862 208 807 q 174 931 190 917 q 72 957 142 957 l 69 972 l 718 972 l 718 772 l 701 775 q 603 904 701 868 q 304 940 506 940 l 304 503 q 496 517 438 503 q 571 559 554 531 q 588 654 588 588 l 603 657 l 603 319 l 588 322 q 571 418 588 390 q 496 459 554 446 q 304 472 438 472 l 304 293 q 315 97 304 146 q 361 32 325 49 q 753 199 753 32 l 769 201 l 769 0 z "},"F":{"ha":749,"x_min":69,"x_max":718,"o":"m 718 972 l 718 772 l 703 775 q 605 903 703 867 q 307 940 507 940 l 307 503 q 433 512 388 506 q 501 538 478 518 q 531 582 525 558 q 536 654 536 606 l 553 657 l 553 319 l 536 322 q 523 414 536 386 q 462 456 510 442 q 307 472 414 469 l 307 314 q 325 83 307 117 q 344 49 333 65 q 375 28 354 33 q 483 17 419 17 l 486 0 l 69 0 l 72 17 q 174 43 142 17 q 208 314 208 72 l 208 658 q 199 862 208 807 q 174 931 190 917 q 72 957 142 957 l 69 972 l 718 972 z "},"G":{"ha":1104,"x_min":69,"x_max":1051,"o":"m 929 260 l 929 88 q 762 15 860 44 q 563 -14 664 -14 q 206 129 342 -14 q 69 486 69 272 q 201 842 69 700 q 554 985 332 985 q 750 958 651 985 q 896 900 849 931 l 896 722 l 881 725 q 772 894 865 836 q 554 953 679 953 q 283 825 376 953 q 190 487 190 697 q 288 147 190 276 q 570 18 385 18 q 832 135 756 18 l 832 243 q 815 433 832 397 q 714 468 797 468 l 711 482 l 1051 482 l 1049 468 q 949 431 969 468 q 929 260 929 393 z "},"H":{"ha":1172,"x_min":69,"x_max":1103,"o":"m 965 658 l 965 314 q 986 64 965 106 q 1010 35 993 47 q 1047 19 1026 22 q 1100 17 1067 17 l 1103 0 l 728 0 l 731 17 q 785 19 765 17 q 823 35 806 22 q 848 63 840 47 q 861 117 856 79 q 868 314 868 165 l 868 467 l 306 467 l 306 314 q 315 111 306 165 q 340 43 324 57 q 442 17 372 17 l 444 0 l 69 0 l 72 17 q 126 19 107 17 q 163 35 146 22 q 188 63 181 47 q 201 117 196 79 q 208 314 208 165 l 208 658 q 200 860 208 803 q 175 931 192 917 q 72 957 142 957 l 69 972 l 444 972 l 442 957 q 340 931 372 957 q 306 658 306 901 l 306 503 l 868 503 l 868 658 q 847 910 868 865 q 823 939 840 926 q 785 954 806 951 q 731 957 765 957 l 728 972 l 1103 972 l 1100 957 q 1047 954 1067 957 q 1010 939 1026 951 q 985 910 993 926 q 972 856 978 893 q 965 658 965 794 z "},"I":{"ha":514,"x_min":69,"x_max":444,"o":"m 306 658 l 306 314 q 315 111 306 165 q 340 43 324 57 q 442 17 372 17 l 444 0 l 69 0 l 72 17 q 126 19 107 17 q 163 35 146 22 q 188 63 181 47 q 201 117 196 79 q 208 314 208 165 l 208 658 q 200 860 208 803 q 175 931 192 917 q 72 957 142 957 l 69 972 l 444 972 l 442 957 q 340 931 372 957 q 306 658 306 901 z "},"J":{"ha":644,"x_min":0,"x_max":596,"o":"m 211 -14 q 62 38 124 -14 q 0 144 0 90 q 15 188 0 171 q 60 204 31 204 q 103 175 89 204 q 118 111 117 146 q 142 47 119 76 q 217 18 165 18 q 360 239 360 18 l 360 658 q 339 910 360 865 q 278 954 322 949 q 225 957 258 957 l 222 972 l 596 972 l 593 957 q 492 931 524 957 q 457 658 457 901 l 457 304 q 440 160 457 221 q 401 66 424 99 q 342 15 378 33 q 277 -9 306 -4 q 211 -14 249 -14 z "},"K":{"ha":928,"x_min":69,"x_max":1004,"o":"m 811 0 q 633 165 740 0 q 538 304 588 235 q 428 424 489 374 q 306 475 367 474 l 306 314 q 325 64 306 106 q 350 35 333 47 q 387 19 367 22 q 440 17 407 17 l 443 0 l 69 0 l 72 17 q 174 43 142 17 q 208 314 208 72 l 208 658 q 199 862 208 807 q 174 931 190 917 q 72 957 142 957 l 69 972 l 443 972 l 440 957 q 387 954 407 957 q 350 939 367 951 q 326 910 333 926 q 314 856 318 893 q 306 658 306 794 l 306 500 q 448 578 365 510 q 593 742 531 647 q 656 911 656 838 q 641 946 656 935 q 588 957 626 957 l 585 972 l 929 972 l 926 957 q 708 856 781 957 q 642 751 674 806 q 545 624 610 696 q 392 496 481 553 q 611 392 526 488 q 722 243 663 336 q 814 108 781 150 q 1001 17 892 17 l 1004 0 l 811 0 z "},"L":{"ha":769,"x_min":71,"x_max":735,"o":"m 735 0 l 71 0 l 74 17 q 127 19 107 17 q 164 35 147 22 q 188 63 181 47 q 201 117 196 79 q 208 314 208 165 l 208 658 q 189 910 208 865 q 128 954 171 949 q 74 957 107 957 l 71 972 l 444 972 l 442 957 q 340 931 372 957 q 306 658 306 901 l 306 293 q 315 94 306 143 q 361 28 325 44 q 719 199 719 28 l 735 201 l 735 0 z "},"M":{"ha":1353,"x_min":71,"x_max":1283,"o":"m 1144 658 l 1144 314 q 1153 111 1144 165 q 1179 43 1163 57 q 1281 17 1211 17 l 1283 0 l 911 0 l 914 17 q 1014 42 982 17 q 1044 178 1040 63 q 1047 314 1047 224 l 1047 901 l 658 14 l 257 765 l 257 317 q 270 116 257 178 q 313 35 283 54 q 410 17 342 17 l 413 0 l 71 0 l 74 17 q 151 24 125 17 q 194 65 176 32 q 217 154 213 99 q 222 317 222 210 l 222 657 q 217 819 222 764 q 194 908 213 875 q 151 949 176 942 q 74 957 125 957 l 71 972 l 257 972 l 686 163 l 1040 972 l 1283 972 l 1281 957 q 1179 931 1211 957 q 1144 658 1144 901 z "},"N":{"ha":1149,"x_min":54,"x_max":1094,"o":"m 940 660 l 940 -7 l 897 -7 l 243 819 l 243 317 q 256 117 243 178 q 297 36 268 56 q 393 17 326 17 l 396 0 l 54 0 l 57 17 q 153 36 124 17 q 195 117 182 56 q 208 317 208 178 l 208 660 q 195 859 208 799 q 153 938 182 919 q 57 957 125 957 l 54 972 l 243 972 l 906 146 l 906 660 q 892 858 906 797 q 850 938 879 919 q 753 957 821 957 l 750 972 l 1094 972 l 1092 957 q 994 938 1024 957 q 953 858 965 919 q 940 660 940 797 z "},"O":{"ha":1072,"x_min":49,"x_max":1024,"o":"m 532 985 q 644 985 532 985 q 890 848 756 985 q 1024 494 1024 711 q 894 131 1024 276 q 542 -14 764 -14 q 184 132 319 -14 q 49 495 49 278 q 178 849 49 713 q 532 985 308 985 m 541 18 q 630 18 541 18 q 810 147 718 18 q 903 485 903 275 q 806 824 903 694 q 531 953 708 953 q 262 825 354 953 q 169 487 169 697 q 267 147 169 276 q 541 18 364 18 z "},"P":{"ha":829,"x_min":69,"x_max":801,"o":"m 433 972 q 801 692 801 972 q 715 489 801 568 q 508 410 628 410 q 306 449 389 410 l 306 314 q 315 111 306 165 q 340 43 324 57 q 442 17 372 17 l 444 0 l 69 0 l 72 17 q 174 43 142 17 q 208 314 208 72 l 208 658 q 199 861 208 807 q 174 929 190 915 q 72 956 142 956 l 69 972 l 433 972 m 306 940 l 306 483 q 476 444 378 444 q 633 506 574 444 q 693 692 693 568 q 593 897 693 846 q 396 940 511 940 l 306 940 z "},"Q":{"ha":1072,"x_min":49,"x_max":1158,"o":"m 532 985 q 644 985 532 985 q 890 848 756 985 q 1024 505 1024 711 q 917 159 1024 299 q 625 -7 811 19 q 774 -65 667 -17 q 971 -114 882 -114 q 1142 -58 1060 -114 l 1158 -76 q 1056 -158 1111 -128 q 927 -187 1001 -187 q 772 -150 853 -187 q 606 -75 690 -112 q 465 -37 521 -37 q 364 -53 410 -37 l 357 -25 q 444 -6 383 -12 q 156 165 263 26 q 49 508 49 303 q 178 849 49 713 q 532 985 308 985 m 541 18 q 630 18 541 18 q 810 147 718 18 q 903 485 903 275 q 806 824 903 694 q 531 953 708 953 q 262 825 354 953 q 169 487 169 697 q 267 147 169 276 q 541 18 364 18 z "},"R":{"ha":903,"x_min":72,"x_max":972,"o":"m 779 0 q 710 35 744 0 q 649 124 676 71 q 586 238 622 176 q 514 354 550 300 q 422 446 478 408 q 304 486 367 483 l 304 314 q 313 110 304 164 q 339 43 322 57 q 442 17 372 17 l 444 0 l 72 0 l 75 17 q 175 42 143 17 q 206 178 201 63 q 208 314 208 224 l 208 665 q 200 869 208 819 q 175 932 192 919 q 75 956 143 956 l 72 972 l 394 972 q 744 736 744 972 q 673 566 744 635 q 500 486 601 497 q 688 267 601 426 q 758 147 721 204 q 969 17 840 17 l 972 0 l 779 0 m 304 940 l 304 514 l 392 514 q 567 568 497 514 q 636 729 636 622 q 394 940 636 940 l 304 940 z "},"S":{"ha":729,"x_min":76,"x_max":653,"o":"m 114 294 q 180 89 114 160 q 342 18 246 18 q 499 65 438 18 q 560 211 560 111 q 464 372 560 301 q 371 433 422 403 q 268 494 319 463 q 175 561 217 526 q 79 749 79 642 q 158 921 79 857 q 366 985 236 985 q 607 928 496 985 q 586 689 607 858 l 565 694 q 501 890 565 825 q 355 954 438 954 q 222 906 272 954 q 172 793 172 858 q 208 681 172 728 q 297 604 243 635 q 413 537 350 574 q 528 465 475 500 q 617 372 582 429 q 653 244 653 315 q 562 51 653 117 q 343 -14 471 -14 q 198 8 272 -14 q 76 74 124 31 q 93 299 76 163 l 114 294 z "},"T":{"ha":842,"x_min":21,"x_max":821,"o":"m 21 972 l 821 972 l 821 772 l 807 775 q 471 944 807 944 l 471 314 q 494 64 471 108 q 524 35 503 47 q 568 19 544 22 q 633 17 592 17 l 636 0 l 208 0 l 211 17 q 277 19 253 17 q 322 35 301 21 q 351 64 342 49 q 367 118 360 79 q 374 314 374 165 l 374 944 q 38 775 38 944 l 21 772 l 21 972 z "},"U":{"ha":1100,"x_min":42,"x_max":1074,"o":"m 919 657 l 919 385 q 897 219 919 292 q 838 104 874 147 q 751 33 801 61 q 557 -14 667 -14 q 181 371 181 -14 l 181 658 q 172 861 181 807 q 146 929 163 915 q 44 956 114 956 l 42 972 l 415 972 l 413 956 q 359 953 379 956 q 322 938 339 950 q 298 909 306 925 q 285 856 290 893 q 278 658 278 807 l 278 364 q 358 106 278 186 q 572 26 438 26 q 796 113 707 26 q 885 382 885 200 l 885 657 q 872 857 885 796 q 831 937 860 918 q 735 956 803 956 l 732 972 l 1074 972 l 1071 956 q 974 937 1003 956 q 933 857 946 918 q 919 657 919 796 z "},"V":{"ha":1079,"x_min":7,"x_max":1072,"o":"m 283 912 q 283 900 283 912 q 287 874 283 888 q 292 853 290 861 q 299 830 294 844 q 306 805 303 815 q 317 775 310 794 q 328 743 324 756 q 342 706 333 731 q 357 665 351 681 l 574 75 l 779 665 q 840 886 840 842 q 817 943 840 931 q 735 956 793 956 l 732 972 l 1072 972 l 1069 956 q 990 949 1017 956 q 933 911 963 942 q 878 825 903 881 q 817 665 853 769 l 583 -7 l 496 -7 l 250 665 q 140 911 172 874 q 106 939 128 926 q 65 953 85 951 q 10 956 44 956 l 7 972 l 382 972 l 379 956 q 305 946 326 956 q 283 912 283 936 z "},"W":{"ha":1515,"x_min":19,"x_max":1497,"o":"m 293 903 q 293 887 293 903 q 308 824 293 871 q 328 761 324 776 q 360 665 343 715 l 553 81 l 735 650 q 628 911 658 872 q 594 938 615 925 q 553 953 572 951 q 499 956 533 956 l 496 972 l 869 972 l 867 956 q 792 945 813 956 q 771 894 771 935 q 835 665 771 853 l 1031 81 l 1214 665 q 1268 903 1268 840 q 1242 945 1268 935 q 1163 956 1217 956 l 1160 972 l 1497 972 l 1496 956 q 1393 938 1426 956 q 1329 863 1360 921 q 1254 665 1299 804 l 1042 -7 l 953 -7 l 751 593 l 565 -7 l 478 -7 l 253 665 q 197 827 215 778 q 151 910 178 876 q 99 950 124 944 q 22 956 74 956 l 19 972 l 393 972 l 390 956 q 315 946 336 956 q 293 903 293 936 z "},"X":{"ha":1167,"x_min":54,"x_max":1114,"o":"m 678 665 q 800 845 768 794 q 832 919 832 896 q 813 949 832 943 q 744 956 793 956 l 742 972 l 1093 972 l 1090 956 q 1007 949 1039 956 q 932 913 975 942 q 841 825 889 883 q 722 665 793 767 l 622 522 l 769 307 q 915 110 864 168 q 1004 34 965 51 q 1111 17 1043 17 l 1114 0 l 742 0 l 744 17 q 802 22 788 17 q 817 40 817 26 q 810 67 817 53 q 788 103 804 81 q 756 150 772 126 q 647 307 703 224 l 560 436 l 472 307 q 331 92 343 118 q 318 48 318 65 q 338 24 318 31 q 406 17 358 17 l 408 0 l 54 0 l 57 17 q 143 24 111 17 q 218 60 175 31 q 309 147 261 90 q 428 307 357 204 l 539 467 l 406 665 q 293 825 335 769 q 211 911 251 881 q 142 949 171 942 q 61 956 113 956 l 58 972 l 432 972 l 429 956 q 369 951 383 956 q 356 934 356 947 q 362 907 356 921 q 384 869 368 893 q 417 821 400 844 q 466 751 433 797 q 526 665 499 706 l 600 556 l 678 665 z "},"Y":{"ha":1001,"x_min":33,"x_max":967,"o":"m 569 314 q 593 64 569 108 q 622 35 601 47 q 667 19 643 22 q 732 17 690 17 l 735 0 l 307 0 l 310 17 q 376 19 351 17 q 420 35 400 21 q 449 64 440 49 q 464 118 458 79 q 472 314 472 165 l 472 401 l 317 664 q 219 826 251 775 q 154 910 188 876 q 99 949 121 943 q 36 956 78 956 l 33 972 l 379 972 l 376 956 q 312 949 331 956 q 293 921 293 943 q 310 864 293 896 q 333 821 328 832 q 351 788 339 810 q 372 753 364 767 q 424 664 410 686 l 549 449 l 656 664 q 751 908 751 861 q 731 947 751 939 q 658 956 711 956 l 656 972 l 967 972 l 964 956 q 854 933 899 956 q 760 801 821 917 q 690 664 736 757 l 569 417 l 569 314 z "},"Z":{"ha":935,"x_min":78,"x_max":847,"o":"m 129 972 l 847 972 l 847 933 l 189 32 l 411 32 q 717 64 621 32 q 797 115 772 82 q 822 199 822 147 l 838 201 l 838 0 l 78 0 l 78 44 l 722 940 q 311 915 415 940 q 164 840 197 888 q 146 775 146 813 l 129 772 l 129 972 z "},"[":{"ha":343,"x_min":104,"x_max":308,"o":"m 104 -129 l 104 1017 l 308 1017 l 308 986 l 207 986 l 207 -99 l 308 -99 l 308 -129 l 104 -129 z "},"\\":{"ha":457,"x_min":21,"x_max":400,"o":"m 106 931 l 400 -118 l 315 -118 l 21 931 l 106 931 z "},"]":{"ha":343,"x_min":35,"x_max":239,"o":"m 239 1017 l 239 -129 l 35 -129 l 35 -99 l 136 -99 l 136 986 l 35 986 l 35 1017 l 239 1017 z "},"^":{"ha":764,"x_min":182,"x_max":582,"o":"m 349 972 l 415 972 l 582 689 l 515 689 l 382 921 l 249 689 l 182 689 l 349 972 z "},"_":{"ha":669,"x_min":35,"x_max":635,"o":"m 35 -136 l 35 -87 l 635 -87 l 635 -136 l 35 -136 z "},"`":{"ha":446,"x_min":54,"x_max":349,"o":"m 54 964 q 68 999 54 985 q 106 1013 82 1013 q 163 985 131 1013 l 349 815 l 328 783 l 103 899 q 54 964 54 925 z "},"a":{"ha":733,"x_min":69,"x_max":699,"o":"m 572 449 l 572 308 q 582 106 572 154 q 629 58 592 58 q 692 78 653 58 l 699 64 q 669 44 688 56 q 596 13 651 32 q 489 -7 540 -7 q 475 179 475 51 q 395 40 444 93 q 258 -14 346 -14 q 120 33 171 -14 q 69 160 69 79 q 475 385 69 383 l 475 435 q 446 588 475 535 q 338 640 417 640 q 265 618 293 640 q 228 569 238 596 q 158 497 204 497 q 111 549 111 497 q 181 636 111 601 q 349 671 250 671 q 510 615 447 671 q 572 449 572 558 m 175 154 q 201 65 175 100 q 285 29 228 29 q 390 85 343 29 q 455 210 438 142 q 475 353 472 279 q 248 296 321 351 q 175 154 175 240 z "},"b":{"ha":772,"x_min":28,"x_max":717,"o":"m 457 671 q 608 617 547 671 q 717 326 717 521 q 623 82 717 178 q 369 -14 529 -14 q 249 -4 304 -14 q 169 14 193 6 l 147 24 l 147 775 q 131 958 147 926 q 110 977 125 968 q 78 988 94 986 q 31 989 61 989 l 28 1004 q 244 1021 128 1021 l 244 489 q 457 671 303 671 m 244 68 q 372 26 297 26 q 493 56 446 26 q 565 131 540 85 q 600 227 589 178 q 611 326 611 276 q 603 424 611 376 q 578 519 596 471 q 524 598 561 568 q 428 628 486 628 q 324 567 369 628 q 261 440 278 506 q 244 324 244 374 l 244 68 z "},"c":{"ha":625,"x_min":56,"x_max":590,"o":"m 353 -14 q 143 76 231 -14 q 56 322 56 167 q 135 574 56 476 q 363 671 215 671 q 522 641 454 671 q 590 558 590 611 q 539 511 590 511 q 495 532 513 511 q 469 577 478 553 q 433 622 460 601 q 364 643 407 643 q 213 560 264 643 q 161 331 161 476 q 222 106 161 186 q 374 26 283 26 q 569 138 511 26 l 590 126 q 353 -14 519 -14 z "},"d":{"ha":781,"x_min":56,"x_max":753,"o":"m 525 154 q 449 34 503 82 q 319 -14 396 -14 q 190 17 242 -14 q 111 97 139 47 q 56 331 56 193 q 150 569 56 468 q 403 671 244 671 q 529 654 472 671 l 529 786 q 522 927 529 890 q 500 972 515 964 q 413 989 472 989 l 410 1004 q 626 1021 510 1021 l 626 308 q 636 106 626 154 q 683 58 646 58 q 746 78 707 58 l 753 64 q 724 44 742 56 q 650 13 706 32 q 543 -7 594 -7 q 525 154 525 68 m 194 131 q 247 57 211 85 q 333 29 282 29 q 424 64 383 29 q 486 153 465 99 q 529 368 529 257 l 529 581 q 399 628 469 628 q 281 597 328 628 q 208 517 233 567 q 161 318 161 424 q 194 131 161 217 z "},"e":{"ha":686,"x_min":56,"x_max":617,"o":"m 617 351 l 161 351 l 161 328 q 224 103 161 181 q 379 26 286 26 q 579 138 518 26 l 600 126 q 358 -14 528 -14 q 144 76 233 -14 q 56 320 56 167 q 134 572 56 474 q 344 671 213 671 q 546 581 475 671 q 617 351 617 492 m 347 643 q 220 574 267 643 q 164 392 174 506 l 510 392 q 347 643 500 643 z "},"f":{"ha":494,"x_min":49,"x_max":619,"o":"m 283 626 l 283 314 q 292 111 283 165 q 318 43 301 57 q 419 17 350 17 l 422 0 l 49 0 l 51 17 q 105 19 85 17 q 142 35 125 22 q 166 63 158 47 q 179 117 174 79 q 186 314 186 165 l 186 626 l 58 626 l 58 657 l 186 657 q 286 996 186 919 q 413 1035 339 1035 q 553 996 486 1035 q 619 907 619 957 q 603 871 619 886 q 561 856 588 856 q 515 878 535 856 q 487 926 496 900 q 456 974 478 951 q 400 996 433 996 q 306 930 329 996 q 283 722 283 864 l 283 657 l 467 657 l 467 626 l 283 626 z "},"g":{"ha":692,"x_min":19,"x_max":671,"o":"m 547 686 l 539 757 q 555 799 539 783 q 592 814 571 814 q 628 799 613 814 q 644 757 644 783 q 529 589 644 679 q 590 426 590 521 q 515 258 590 331 q 332 186 440 186 q 196 222 256 186 q 138 110 138 169 q 167 45 138 69 q 259 21 197 21 q 363 19 321 21 q 461 14 404 18 q 549 -1 518 10 q 613 -31 581 -12 q 671 -146 671 -64 q 567 -320 671 -246 q 300 -394 464 -394 q 97 -348 175 -394 q 19 -225 19 -301 q 56 -122 19 -171 q 149 -54 92 -72 q 68 71 68 -22 q 97 162 68 115 q 172 238 126 208 q 74 424 74 313 q 149 603 74 536 q 331 671 224 671 q 513 606 439 671 q 547 686 547 640 m 117 -211 q 172 -322 117 -281 q 323 -364 226 -364 q 497 -310 419 -364 q 574 -181 574 -256 q 497 -85 574 -107 q 189 -62 419 -62 q 140 -120 163 -78 q 117 -211 117 -162 m 215 281 q 235 252 215 281 q 332 222 256 222 q 449 281 408 222 q 489 433 489 340 q 449 581 489 525 q 332 636 408 636 q 215 581 256 636 q 175 433 175 525 q 215 281 175 340 z "},"h":{"ha":868,"x_min":35,"x_max":826,"o":"m 272 1022 l 272 422 q 342 597 285 522 q 493 671 399 671 q 706 449 706 671 l 706 229 q 724 51 706 85 q 824 17 743 17 l 826 0 l 489 0 l 492 17 q 592 51 575 17 q 608 242 608 86 l 608 435 q 578 579 608 531 q 484 628 549 628 q 376 584 419 628 q 313 474 333 540 q 272 214 272 344 q 290 50 272 83 q 389 17 307 17 l 392 0 l 53 0 l 56 17 q 157 51 139 17 q 175 232 175 85 l 175 694 q 156 944 175 903 q 130 974 147 961 q 92 989 113 986 q 38 992 72 992 l 35 1007 q 272 1022 156 1022 z "},"i":{"ha":440,"x_min":42,"x_max":399,"o":"m 171 838 q 159 849 171 838 q 147 893 147 861 q 171 949 147 925 q 226 972 194 972 q 282 949 258 972 q 306 893 306 925 q 282 838 306 861 q 226 814 258 814 q 171 838 194 814 m 279 671 l 279 229 q 297 50 279 83 q 396 17 314 17 l 399 0 l 60 0 l 63 17 q 164 51 146 17 q 182 232 182 85 l 182 329 q 173 542 182 490 q 147 610 164 594 q 44 640 114 640 l 42 656 q 279 671 163 671 z "},"j":{"ha":393,"x_min":-142,"x_max":292,"o":"m 157 838 q 145 849 157 838 q 133 893 133 861 q 157 949 133 925 q 213 972 181 972 q 268 949 244 972 q 292 893 292 925 q 268 838 292 861 q 213 814 244 814 q 157 838 181 814 m 265 671 l 265 44 q 183 -271 265 -147 q -49 -394 101 -394 q -115 -378 -89 -394 q -142 -334 -142 -362 q -123 -290 -142 -306 q -83 -274 -104 -274 q -22 -295 -61 -274 q 51 -317 17 -317 q 144 -252 119 -317 q 168 -42 168 -187 l 168 343 q 147 594 168 551 q 123 622 140 610 q 85 638 106 635 q 31 640 65 640 l 28 656 q 265 671 149 671 z "},"k":{"ha":725,"x_min":35,"x_max":767,"o":"m 628 0 q 469 118 550 0 q 403 218 436 168 q 254 350 321 340 l 254 229 q 272 51 254 85 q 371 17 290 17 l 374 0 l 35 0 l 38 17 q 139 52 121 17 q 157 242 157 88 l 157 774 q 150 923 157 882 q 128 972 143 964 q 38 989 97 989 l 35 1006 q 254 1021 139 1021 l 254 374 q 408 458 336 379 q 481 599 481 536 q 468 632 481 622 q 426 642 456 642 l 424 657 l 719 657 l 717 642 q 585 600 626 642 q 497 508 543 558 q 431 436 451 458 q 315 364 375 379 q 429 317 378 356 q 515 228 481 278 q 583 131 550 179 q 764 17 664 17 l 767 0 l 628 0 z "},"l":{"ha":417,"x_min":35,"x_max":375,"o":"m 254 1022 l 254 242 q 272 52 254 88 q 372 17 290 17 l 375 0 l 35 0 l 38 17 q 139 51 121 17 q 157 242 157 86 l 157 772 q 140 958 157 926 q 119 978 135 968 q 87 989 104 988 q 38 990 69 990 l 35 1006 q 254 1022 139 1022 z "},"m":{"ha":1253,"x_min":42,"x_max":1211,"o":"m 685 422 q 749 597 697 522 q 894 671 801 671 q 1039 614 988 671 q 1090 449 1090 557 l 1090 229 q 1109 51 1090 85 q 1208 17 1128 17 l 1211 0 l 883 0 l 886 17 q 978 51 963 17 q 993 242 993 86 l 993 435 q 966 579 993 531 q 879 628 939 628 q 781 584 819 628 q 722 474 742 540 q 685 214 685 344 q 702 50 685 83 q 801 17 719 17 l 804 0 l 478 0 l 481 17 q 572 51 557 17 q 588 242 588 86 l 588 435 q 560 579 588 531 q 474 628 533 628 q 375 584 414 628 q 317 474 336 540 q 279 214 279 344 q 297 50 279 83 q 396 17 314 17 l 399 0 l 60 0 l 63 17 q 164 51 146 17 q 182 232 182 85 l 182 343 q 161 594 182 551 q 137 622 154 610 q 99 638 119 635 q 44 640 79 640 l 42 656 q 279 671 163 671 l 279 422 q 344 597 292 522 q 489 671 396 671 q 685 422 685 671 z "},"n":{"ha":875,"x_min":42,"x_max":833,"o":"m 279 671 l 279 422 q 349 597 292 522 q 500 671 406 671 q 713 449 713 671 l 713 229 q 731 51 713 85 q 831 17 750 17 l 833 0 l 496 0 l 499 17 q 599 51 582 17 q 615 242 615 86 l 615 435 q 585 579 615 531 q 491 628 556 628 q 383 584 426 628 q 319 474 340 540 q 279 214 279 344 q 297 50 279 83 q 396 17 314 17 l 399 0 l 60 0 l 63 17 q 164 51 146 17 q 182 232 182 85 l 182 343 q 161 594 182 551 q 137 622 154 610 q 99 638 119 635 q 44 640 79 640 l 42 656 q 279 671 163 671 z "},"o":{"ha":739,"x_min":56,"x_max":683,"o":"m 56 328 q 56 401 56 328 q 139 572 56 474 q 365 671 222 671 q 596 572 508 671 q 683 328 683 474 q 599 84 683 182 q 372 -14 515 -14 q 142 85 229 -14 q 56 328 56 183 m 216 103 q 243 58 216 103 q 372 14 271 14 q 526 101 474 14 q 578 327 578 189 q 522 554 578 465 q 366 643 467 643 q 213 555 265 643 q 161 329 161 467 q 216 103 161 192 z "},"p":{"ha":778,"x_min":35,"x_max":722,"o":"m 250 489 q 326 618 274 565 q 466 671 378 671 q 614 617 554 671 q 722 326 722 521 q 633 83 722 181 q 408 -14 544 -14 q 250 24 310 -14 l 250 -140 q 252 -261 250 -224 q 267 -326 254 -299 q 302 -358 281 -353 q 368 -364 324 -364 l 371 -381 l 35 -381 l 38 -364 q 135 -328 118 -364 q 153 -140 153 -293 l 153 446 q 151 553 153 521 q 135 608 149 585 q 102 635 122 632 q 38 639 82 639 l 35 654 q 250 671 133 671 l 250 489 m 390 26 q 569 122 518 26 q 617 326 617 210 q 586 519 617 431 q 531 598 568 568 q 441 628 493 628 q 349 591 389 628 q 289 500 308 554 q 250 317 250 392 l 250 100 q 390 26 293 26 z "},"q":{"ha":757,"x_min":56,"x_max":743,"o":"m 403 671 q 581 636 499 671 l 622 664 l 622 -151 q 640 -331 622 -297 q 740 -364 657 -364 l 743 -381 l 404 -381 l 407 -364 q 507 -331 489 -364 q 525 -151 525 -297 l 525 154 q 449 34 503 82 q 319 -14 396 -14 q 190 17 242 -14 q 111 97 139 47 q 56 331 56 193 q 150 569 56 468 q 403 671 244 671 m 194 131 q 247 57 211 85 q 333 29 282 29 q 424 64 383 29 q 486 153 465 99 q 529 368 529 257 l 529 581 q 399 628 469 628 q 281 597 328 628 q 208 517 233 567 q 161 318 161 424 q 194 131 161 217 z "},"r":{"ha":571,"x_min":42,"x_max":571,"o":"m 483 678 q 544 663 518 678 q 571 621 571 647 q 554 579 571 594 q 517 564 538 564 q 465 582 496 564 q 399 600 433 600 q 310 500 344 600 q 276 268 276 400 q 294 53 276 90 q 315 30 300 40 q 347 18 331 19 q 394 17 364 17 l 397 0 l 60 0 l 63 17 q 127 22 107 17 q 161 56 147 26 q 177 128 175 85 q 179 268 179 172 l 179 349 q 169 568 179 542 q 150 610 158 594 q 125 631 142 625 q 44 639 94 639 l 42 654 q 276 671 160 671 l 276 467 q 345 622 292 565 q 483 678 399 678 z "},"s":{"ha":571,"x_min":69,"x_max":513,"o":"m 100 207 q 149 72 100 117 q 265 26 197 26 q 374 57 332 26 q 415 140 415 88 q 380 225 415 192 q 294 279 344 258 q 194 322 244 300 q 108 388 143 344 q 72 503 72 431 q 137 623 72 575 q 286 671 201 671 q 475 632 407 671 q 458 454 475 568 l 442 458 q 400 592 442 550 q 299 633 358 633 q 205 603 240 633 q 169 520 169 572 q 205 437 169 468 q 290 385 240 406 q 391 341 340 364 q 477 276 442 318 q 513 172 513 233 q 443 35 513 83 q 260 -14 374 -14 q 69 46 147 -14 q 83 210 69 115 l 100 207 z "},"t":{"ha":443,"x_min":64,"x_max":415,"o":"m 244 657 l 415 657 l 415 626 l 244 626 l 244 97 q 258 51 244 68 q 294 33 272 33 q 413 63 344 33 l 415 47 q 243 -14 318 -14 q 171 10 194 -14 q 147 92 147 33 l 147 626 l 64 626 l 64 657 q 169 699 139 657 q 214 825 199 742 l 244 828 l 244 657 z "},"u":{"ha":860,"x_min":28,"x_max":825,"o":"m 558 152 q 569 179 558 152 q 591 261 581 206 q 601 381 601 317 q 599 488 601 444 q 589 565 596 531 q 565 614 582 599 q 464 640 535 640 l 461 656 q 699 671 582 671 l 699 308 q 708 106 699 154 q 756 58 718 58 q 818 78 779 58 l 825 64 q 796 44 814 56 q 722 13 778 32 q 615 -7 667 -7 q 601 179 601 74 q 381 -14 538 -14 q 168 208 168 -14 l 168 343 q 147 594 168 551 q 123 622 140 610 q 85 638 106 635 q 31 640 65 640 l 28 656 q 265 671 149 671 l 265 222 q 295 78 265 126 q 388 29 325 29 q 494 64 451 29 q 558 152 536 99 z "},"v":{"ha":694,"x_min":-35,"x_max":694,"o":"m 221 578 q 286 350 221 514 l 393 81 l 501 414 q 533 565 533 514 q 436 640 533 640 l 433 657 l 694 657 l 692 640 q 612 603 635 640 q 526 376 589 567 l 401 -4 l 319 -4 l 139 457 q 56 607 93 574 q -32 640 19 640 l -35 657 l 310 657 l 307 640 q 240 625 258 640 q 221 578 221 610 z "},"w":{"ha":1111,"x_min":-35,"x_max":1111,"o":"m 221 578 q 286 350 221 514 l 393 81 l 536 549 q 422 640 503 640 l 419 657 l 740 657 l 738 640 q 670 625 689 640 q 651 572 651 610 q 717 350 651 535 l 810 81 l 918 414 q 950 565 950 514 q 853 640 950 640 l 850 657 l 1111 657 l 1108 640 q 1028 603 1051 640 q 943 376 1006 567 l 818 -4 l 736 -4 l 554 497 l 401 -4 l 319 -4 l 139 457 q 56 607 93 574 q -32 640 19 640 l -35 657 l 310 657 l 307 640 q 240 625 258 640 q 221 578 221 610 z "},"x":{"ha":692,"x_min":0,"x_max":692,"o":"m 503 604 q 432 640 503 640 l 429 657 l 685 657 l 682 640 q 600 625 646 640 q 490 494 572 615 q 433 414 457 446 l 385 347 l 475 199 q 586 50 544 83 q 689 17 628 17 l 692 0 l 364 0 l 367 17 q 422 22 407 17 q 438 52 438 28 q 367 192 438 76 l 317 272 l 283 225 q 189 53 189 96 q 254 17 189 17 l 257 0 l 0 0 l 3 17 q 97 39 68 17 q 120 58 111 51 q 148 90 129 65 q 176 128 167 114 q 213 181 186 142 q 258 243 240 219 l 300 301 l 214 444 q 101 603 139 567 q 11 640 63 640 l 8 657 l 308 657 l 306 640 q 253 634 268 640 q 238 613 238 628 q 322 451 238 599 l 368 375 l 408 432 q 503 604 503 561 z "},"y":{"ha":694,"x_min":-35,"x_max":694,"o":"m 135 -292 q 251 -238 204 -292 q 346 -65 297 -185 l 139 457 q 56 607 93 574 q -32 640 19 640 l -35 657 l 310 657 l 307 640 q 240 625 258 640 q 221 578 221 610 q 286 350 221 514 l 393 81 l 501 414 q 533 565 533 514 q 436 640 533 640 l 433 657 l 694 657 l 692 640 q 612 603 635 640 q 526 376 589 567 l 401 -4 q 258 -293 340 -192 q 88 -394 176 -394 q 21 -378 47 -394 q -6 -334 -6 -362 q 12 -290 -6 -306 q 49 -274 29 -274 q 94 -283 69 -274 q 135 -292 119 -292 z "},"z":{"ha":633,"x_min":56,"x_max":578,"o":"m 321 31 q 483 58 443 31 q 524 174 524 85 l 540 178 q 557 0 557 64 l 56 0 l 56 19 l 446 626 l 319 626 q 157 599 197 626 q 117 483 117 572 l 100 479 q 83 657 83 593 l 578 657 l 578 642 l 178 31 l 321 31 z "},"{":{"ha":458,"x_min":76,"x_max":410,"o":"m 76 461 q 146 515 129 464 q 163 680 163 565 q 172 843 163 794 q 207 936 182 892 q 410 1028 258 1028 l 410 990 q 302 925 338 990 q 267 756 267 860 q 243 522 267 592 q 151 443 219 453 q 243 364 219 433 q 267 131 267 294 q 302 -39 267 26 q 410 -104 338 -104 l 410 -142 q 207 -50 258 -142 q 163 175 163 29 q 146 372 163 321 q 76 425 129 422 l 76 461 z "},"|":{"ha":293,"x_min":104,"x_max":189,"o":"m 189 1000 l 189 -269 l 104 -269 l 104 1000 l 189 1000 z "},"}":{"ha":458,"x_min":49,"x_max":382,"o":"m 382 425 q 313 372 329 422 q 296 206 296 321 q 286 43 296 92 q 251 -50 276 -6 q 49 -142 200 -142 l 49 -104 q 156 -39 121 -104 q 192 131 192 26 q 215 364 192 294 q 307 443 239 433 q 215 522 239 453 q 192 756 192 592 q 156 925 192 860 q 49 990 121 990 l 49 1028 q 251 936 200 1028 q 296 711 296 857 q 313 515 296 565 q 382 461 329 464 l 382 425 z "},"~":{"ha":764,"x_min":136,"x_max":628,"o":"m 504 457 q 379 410 463 457 q 235 363 296 363 q 136 410 175 363 l 136 476 q 249 429 176 429 q 371 476 289 429 q 513 524 453 524 q 628 476 574 524 l 628 410 q 504 457 574 457 z "}," ":{"ha":347,"x_min":0,"x_max":0,"o":""},"¡":{"ha":339,"x_min":97,"x_max":243,"o":"m 232 -261 q 217 -308 232 -289 q 170 -328 201 -328 q 124 -308 139 -328 q 108 -261 108 -289 q 131 67 108 -175 q 153 414 153 310 l 188 414 q 210 67 188 310 q 232 -261 232 -175 m 243 598 q 243 582 243 598 q 222 545 243 567 q 171 524 201 524 q 119 545 140 524 q 97 598 97 567 q 119 650 97 629 q 170 671 140 671 q 222 650 200 671 q 243 598 243 629 z "},"¢":{"ha":764,"x_min":125,"x_max":660,"o":"m 363 110 q 192 218 260 131 q 125 449 125 306 q 201 688 125 592 q 419 789 278 785 l 438 990 l 488 990 l 469 788 q 605 751 550 781 q 660 676 660 722 q 608 629 660 629 q 543 686 565 629 q 515 728 535 707 q 467 757 496 750 l 415 146 q 443 144 424 144 q 639 256 581 144 l 660 244 q 411 104 589 104 l 394 -97 l 344 -97 l 363 110 m 231 463 q 367 161 231 222 l 418 760 q 278 671 325 753 q 231 463 231 589 z "},"£":{"ha":764,"x_min":82,"x_max":746,"o":"m 314 415 l 318 304 q 303 124 318 208 q 538 75 443 75 q 732 143 633 75 l 746 122 q 706 81 735 107 q 650 39 676 56 q 512 -7 583 -7 q 285 69 440 -7 q 169 -14 254 -14 q 105 9 128 -14 q 82 70 82 32 q 109 132 82 108 q 168 156 136 156 q 232 146 200 156 q 235 217 235 185 q 217 415 235 250 l 110 415 l 110 468 l 213 468 q 207 579 207 522 q 213 675 207 636 q 238 757 219 714 q 284 833 256 800 q 361 886 313 865 q 472 907 410 907 q 624 858 568 907 q 681 755 681 810 q 633 700 681 700 q 572 786 582 700 q 546 844 569 818 q 475 871 522 871 q 349 793 393 871 q 306 596 306 715 q 310 468 306 531 l 540 468 l 540 415 l 314 415 m 117 63 q 117 53 117 63 q 129 31 117 43 q 164 18 142 18 q 203 40 186 18 q 226 96 221 61 q 167 111 192 111 q 129 97 142 111 q 117 63 117 82 z "},"¤":{"ha":764,"x_min":125,"x_max":639,"o":"m 218 326 q 182 443 182 378 q 217 561 182 508 l 125 653 l 172 700 l 263 608 q 381 644 314 644 q 500 608 449 644 l 592 700 l 639 653 l 547 561 q 581 444 581 511 q 544 326 581 378 l 639 233 l 592 186 l 497 279 q 380 246 449 246 q 265 279 311 246 l 172 186 l 125 233 l 218 326 m 519 444 q 519 474 519 444 q 481 543 519 503 q 381 583 443 583 q 281 543 319 583 q 243 444 243 503 q 281 347 243 386 q 381 307 319 307 q 481 347 443 307 q 519 444 519 386 z "},"¥":{"ha":764,"x_min":-11,"x_max":756,"o":"m 118 513 l 118 565 l 240 565 q 90 822 135 767 q -8 876 46 876 l -11 893 l 307 893 l 304 876 q 240 870 258 876 q 221 836 221 864 q 346 557 221 807 l 419 410 l 475 557 q 564 826 564 792 q 545 868 564 860 q 475 876 526 876 l 472 893 l 756 893 l 753 876 q 640 823 681 876 q 514 565 599 769 l 660 565 l 660 513 l 493 513 l 438 371 l 660 371 l 660 318 l 438 318 l 438 197 q 447 82 438 158 q 462 51 450 67 q 481 30 474 35 q 510 21 488 25 q 549 17 533 17 l 600 17 l 603 0 l 175 0 l 178 17 q 244 17 225 17 q 288 28 264 18 q 317 49 311 38 q 331 97 324 61 q 340 172 339 133 q 340 286 340 210 l 340 318 l 118 318 l 118 371 l 340 371 l 267 513 l 118 513 z "},"¦":{"ha":293,"x_min":104,"x_max":189,"o":"m 189 204 l 189 -269 l 104 -269 l 104 204 l 189 204 m 189 1000 l 189 526 l 104 526 l 104 1000 l 189 1000 z "},"§":{"ha":764,"x_min":118,"x_max":650,"o":"m 365 -358 q 564 -189 564 -358 q 518 -84 564 -132 q 407 1 472 -36 q 277 77 342 38 q 167 177 213 117 q 121 315 121 238 q 172 447 121 392 q 307 518 224 501 q 169 631 218 574 q 121 778 121 689 q 193 926 121 867 q 370 985 265 985 q 547 946 475 985 q 618 853 618 907 q 603 819 618 833 q 567 804 588 804 q 525 827 546 804 q 489 876 504 850 q 443 926 474 903 q 374 949 413 949 q 253 908 299 949 q 207 804 207 868 q 253 694 207 740 q 363 613 299 647 q 493 540 428 578 q 604 442 558 501 q 650 300 650 382 q 606 163 650 218 q 488 82 561 107 q 607 -21 564 35 q 650 -157 650 -76 q 566 -335 650 -275 q 372 -396 482 -396 q 190 -357 261 -396 q 118 -264 118 -318 q 133 -230 118 -244 q 169 -215 149 -215 q 211 -237 190 -215 q 247 -287 232 -260 q 294 -336 263 -314 q 365 -358 325 -358 m 564 271 q 497 396 564 342 q 437 441 463 425 q 358 488 411 457 q 248 444 289 483 q 207 352 207 404 q 224 267 207 300 q 284 203 242 235 q 353 157 326 172 q 442 110 379 142 q 564 271 564 139 z "},"¨":{"ha":574,"x_min":68,"x_max":506,"o":"m 90 840 q 79 851 90 840 q 68 893 68 863 q 90 946 68 924 q 143 968 113 968 q 196 946 174 968 q 218 893 218 924 q 196 840 218 863 q 143 818 174 818 q 90 840 113 818 m 378 840 q 367 851 378 840 q 356 893 356 863 q 378 946 356 924 q 431 968 400 968 q 483 946 461 968 q 506 893 506 924 q 483 840 506 863 q 431 818 461 818 q 378 840 400 818 z "},"©":{"ha":1132,"x_min":69,"x_max":1063,"o":"m 69 482 q 69 585 69 482 q 215 833 69 688 q 566 979 360 979 q 917 834 772 979 q 1063 483 1063 689 q 917 131 1063 276 q 566 -14 772 -14 q 215 131 360 -14 q 69 482 69 276 m 121 483 q 121 392 121 483 q 251 169 121 300 q 566 38 382 38 q 881 169 750 38 q 1011 483 1011 300 q 881 797 1011 667 q 566 928 750 928 q 251 797 382 928 q 121 483 121 667 m 803 254 q 581 176 707 176 q 367 258 456 176 q 279 475 279 339 q 359 698 279 611 q 575 785 439 785 q 697 769 639 785 q 785 731 756 753 l 785 593 l 774 594 q 706 717 760 678 q 575 757 653 757 q 426 679 478 757 q 374 478 374 601 q 435 282 374 354 q 597 210 497 210 q 789 279 696 210 l 803 254 z "},"ª":{"ha":524,"x_min":57,"x_max":479,"o":"m 250 985 q 399 839 399 985 l 399 749 q 403 621 399 651 q 425 590 408 590 q 471 603 442 590 l 479 590 q 329 543 417 543 q 319 621 322 567 l 311 621 q 185 538 268 538 q 92 568 126 538 q 57 653 57 599 q 318 800 57 794 l 318 829 q 301 926 318 893 q 233 960 283 960 q 194 946 210 960 q 172 914 178 932 q 122 869 156 869 q 83 910 83 869 q 133 965 83 946 q 250 985 183 985 m 199 572 q 288 632 258 572 q 318 775 318 692 q 183 738 225 774 q 142 649 142 703 q 156 594 142 615 q 199 572 171 572 m 63 413 l 63 468 l 450 468 l 450 413 l 63 413 z "},"«":{"ha":638,"x_min":42,"x_max":526,"o":"m 47 388 q 44 393 47 388 q 42 407 42 397 q 47 426 42 417 q 69 453 53 435 q 106 494 85 471 q 251 671 174 568 l 290 642 l 163 407 l 290 172 l 251 143 q 129 294 174 246 q 69 361 85 343 q 47 388 53 379 m 283 388 q 281 393 283 388 q 278 407 278 397 q 283 426 278 417 q 305 453 289 435 q 342 494 321 471 q 488 671 410 568 l 526 642 l 399 407 l 526 172 l 488 143 q 365 294 410 246 q 305 361 321 343 q 283 388 289 379 z "},"¬":{"ha":764,"x_min":136,"x_max":628,"o":"m 136 410 l 136 476 l 628 476 l 628 197 l 561 197 l 561 410 l 136 410 z "},"®":{"ha":1132,"x_min":69,"x_max":1063,"o":"m 215 833 q 288 906 215 833 q 567 979 361 979 q 917 834 772 979 q 1063 483 1063 689 q 917 131 1063 276 q 567 -14 772 -14 q 215 131 361 -14 q 69 482 69 276 q 215 833 69 688 m 121 483 q 121 392 121 483 q 252 169 121 300 q 567 38 383 38 q 883 168 751 38 q 1014 483 1014 299 q 883 797 1014 667 q 567 928 753 928 q 251 797 382 928 q 121 483 121 667 m 776 185 q 661 317 721 185 q 598 414 638 368 q 510 468 558 460 l 510 367 q 524 227 510 256 q 592 199 538 199 l 593 185 l 350 185 l 351 199 q 418 226 406 199 q 431 367 431 254 l 431 600 q 418 738 431 711 q 351 764 406 764 l 350 778 l 551 778 q 769 628 769 778 q 733 530 769 571 q 644 475 697 489 q 757 307 700 429 q 806 233 776 265 q 871 199 836 200 l 874 185 l 776 185 m 510 754 l 510 490 l 550 490 q 643 524 606 490 q 681 626 681 557 q 551 754 681 754 l 510 754 z "},"¯":{"ha":571,"x_min":104,"x_max":467,"o":"m 104 846 l 104 933 l 467 933 l 467 846 l 104 846 z "},"°":{"ha":554,"x_min":83,"x_max":471,"o":"m 83 837 q 83 877 83 837 q 137 974 83 918 q 277 1031 190 1031 q 417 974 364 1031 q 471 836 471 918 q 417 699 471 754 q 277 643 364 643 q 137 699 190 643 q 83 837 83 756 m 415 836 q 415 865 415 836 q 377 935 415 894 q 277 975 339 975 q 177 935 215 975 q 139 836 139 894 q 177 738 139 778 q 277 699 215 699 q 377 738 339 699 q 415 836 415 778 z "},"±":{"ha":764,"x_min":136,"x_max":628,"o":"m 136 410 l 136 476 l 349 476 l 349 689 l 415 689 l 415 476 l 628 476 l 628 410 l 415 410 l 415 197 l 349 197 l 349 410 l 136 410 m 136 0 l 136 67 l 628 67 l 628 0 l 136 0 z "},"²":{"ha":542,"x_min":93,"x_max":446,"o":"m 267 981 q 302 981 267 981 q 385 949 338 981 q 432 846 432 918 q 369 690 432 774 q 175 476 306 606 q 354 496 294 478 q 414 561 414 514 l 446 561 l 446 432 l 93 432 l 93 450 q 280 674 211 568 q 349 851 349 779 q 328 922 349 896 q 269 949 308 949 q 201 905 231 949 q 149 861 171 861 q 115 872 126 861 q 103 897 103 882 q 150 957 103 933 q 267 981 197 981 z "},"³":{"ha":542,"x_min":83,"x_max":442,"o":"m 418 860 q 384 778 418 811 q 300 728 350 744 q 406 680 371 719 q 442 593 442 640 q 382 472 442 521 q 246 424 322 424 q 83 494 139 424 l 113 519 q 235 465 161 465 q 322 497 286 465 q 358 582 358 529 q 161 707 358 707 l 161 733 q 280 766 225 733 q 335 860 335 799 q 263 949 335 949 q 221 935 239 949 q 194 905 203 921 q 172 875 186 889 q 139 861 157 861 q 108 872 121 861 q 96 897 96 882 q 144 957 96 933 q 263 981 193 981 q 418 860 418 981 z "},"´":{"ha":446,"x_min":69,"x_max":364,"o":"m 256 985 q 312 1013 288 1013 q 350 999 336 1013 q 364 964 364 985 q 315 899 364 925 l 90 783 l 69 815 l 256 985 z "},"µ":{"ha":860,"x_min":69,"x_max":728,"o":"m 558 152 q 569 179 558 152 q 591 261 581 206 q 601 382 601 317 q 599 492 601 447 q 592 569 597 536 q 575 617 588 603 q 506 640 554 640 l 503 656 q 699 671 540 665 l 699 308 q 728 13 699 58 q 615 -7 672 -7 q 601 179 601 74 q 381 -14 538 -14 q 265 24 311 -14 l 265 -72 q 294 -368 265 -322 q 182 -387 239 -387 q 168 -201 168 -307 l 168 343 q 143 614 168 586 q 72 640 121 640 l 69 656 q 265 671 107 665 l 265 181 q 294 66 265 103 q 388 29 324 29 q 494 64 451 29 q 558 152 536 99 z "},"¶":{"ha":879,"x_min":96,"x_max":800,"o":"m 800 819 l 800 757 l 679 757 l 679 -269 l 608 -269 l 608 757 l 457 757 l 457 -269 l 386 -269 l 386 239 q 181 324 267 239 q 96 529 96 410 q 181 734 96 649 q 386 819 267 819 l 800 819 z "},"·":{"ha":240,"x_min":47,"x_max":193,"o":"m 47 406 q 47 422 47 406 q 69 459 47 438 q 121 481 90 481 q 172 459 151 481 q 193 406 193 438 q 172 354 193 375 q 120 333 150 333 q 69 354 90 333 q 47 406 47 375 z "},"¸":{"ha":625,"x_min":193,"x_max":479,"o":"m 318 -90 q 434 -123 389 -90 q 479 -220 479 -156 q 431 -322 479 -285 q 310 -358 382 -358 q 193 -304 239 -358 l 218 -276 q 299 -311 253 -311 q 371 -285 346 -311 q 396 -224 396 -260 q 264 -115 396 -131 l 306 0 l 350 0 l 318 -90 z "},"¹":{"ha":542,"x_min":110,"x_max":426,"o":"m 328 624 q 343 480 328 507 q 425 453 358 453 l 426 432 l 149 432 l 150 453 q 233 480 218 453 q 247 624 247 507 l 247 842 q 222 892 247 892 q 121 857 203 892 l 110 886 q 308 983 251 949 l 328 975 l 328 624 z "},"º":{"ha":564,"x_min":71,"x_max":492,"o":"m 71 762 q 71 809 71 762 q 126 921 71 857 q 278 985 182 985 q 433 920 374 985 q 492 761 492 856 q 435 602 492 667 q 282 538 378 538 q 128 602 186 538 q 71 762 71 667 m 154 762 q 154 718 154 762 q 188 617 154 674 q 283 561 222 561 q 375 617 343 561 q 407 760 407 672 q 374 905 407 849 q 278 961 340 961 q 185 906 217 961 q 154 762 154 850 m 89 413 l 89 468 l 476 468 l 476 413 l 89 413 z "},"»":{"ha":638,"x_min":111,"x_max":596,"o":"m 590 426 q 593 421 590 426 q 596 407 596 417 q 590 388 596 397 q 569 361 585 379 q 532 319 553 343 q 386 143 464 246 l 347 172 l 475 407 l 347 642 l 386 671 q 508 519 464 568 q 569 453 553 471 q 590 426 585 435 m 354 426 q 357 421 354 426 q 360 407 360 417 q 354 388 360 397 q 333 361 349 379 q 296 319 317 343 q 150 143 228 246 l 111 172 l 239 407 l 111 642 l 150 671 q 272 519 228 568 q 333 453 317 471 q 354 426 349 435 z "},"¼":{"ha":1218,"x_min":94,"x_max":1107,"o":"m 356 -56 l 775 949 l 846 949 l 426 -56 l 356 -56 m 313 547 q 328 403 313 431 q 410 376 343 376 l 411 356 l 133 356 l 135 376 q 217 403 203 376 q 232 547 232 431 l 232 765 q 207 815 232 815 q 106 781 188 815 l 94 810 q 293 907 236 872 l 313 899 l 313 547 m 926 151 l 926 421 l 738 151 l 926 151 m 682 115 l 682 149 l 964 550 l 1006 544 l 1006 151 l 1107 151 l 1107 115 l 1007 115 q 1027 38 1008 54 q 1103 21 1046 21 l 1104 0 l 828 0 l 829 21 q 905 37 888 21 q 925 115 922 53 l 682 115 z "},"½":{"ha":1218,"x_min":94,"x_max":1068,"o":"m 328 -56 l 747 949 l 818 949 l 399 -56 l 328 -56 m 313 547 q 328 403 313 431 q 410 376 343 376 l 411 356 l 133 356 l 135 376 q 217 403 203 376 q 232 547 232 431 l 232 765 q 207 815 232 815 q 106 781 188 815 l 94 810 q 293 907 236 872 l 313 899 l 313 547 m 890 549 q 925 549 890 549 q 1007 517 960 549 q 1054 414 1054 486 q 991 258 1054 342 q 797 44 928 174 q 976 64 917 46 q 1036 129 1036 82 l 1068 129 l 1068 0 l 715 0 l 715 18 q 902 242 833 136 q 971 419 971 347 q 951 490 971 464 q 899 517 931 517 q 849 503 867 517 q 822 473 831 489 q 799 443 814 457 q 767 429 785 429 q 737 440 749 429 q 725 465 725 450 q 772 525 725 501 q 890 549 819 549 z "},"¾":{"ha":1218,"x_min":82,"x_max":1107,"o":"m 369 -56 l 789 949 l 860 949 l 440 -56 l 369 -56 m 417 783 q 383 701 417 735 q 299 651 349 668 q 405 603 369 643 q 440 517 440 564 q 381 396 440 444 q 244 347 321 347 q 82 418 138 347 l 111 443 q 233 389 160 389 q 321 421 285 389 q 357 506 357 453 q 160 631 357 631 l 160 657 q 278 690 224 657 q 333 783 333 722 q 261 872 333 872 q 211 850 231 872 q 176 806 192 828 q 140 785 160 785 q 107 795 119 785 q 94 821 94 806 q 143 881 94 857 q 261 904 192 904 q 417 783 417 904 m 926 151 l 926 421 l 738 151 l 926 151 m 682 115 l 682 149 l 964 550 l 1006 544 l 1006 151 l 1107 151 l 1107 115 l 1007 115 q 1027 38 1008 54 q 1103 21 1046 21 l 1104 0 l 828 0 l 829 21 q 905 37 888 21 q 925 115 922 53 l 682 115 z "},"¿":{"ha":504,"x_min":22,"x_max":476,"o":"m 476 -172 q 401 -277 476 -226 q 231 -328 326 -328 q 78 -283 135 -328 q 22 -151 22 -239 q 126 50 22 -65 q 213 144 169 99 q 317 310 317 253 q 257 415 317 367 l 282 442 q 382 268 382 356 q 289 92 382 186 q 211 11 250 51 q 118 -168 118 -83 q 229 -292 118 -292 q 316 -265 283 -292 q 358 -207 349 -239 q 435 -122 386 -122 q 464 -136 451 -122 q 476 -172 476 -150 m 353 598 q 353 582 353 598 q 331 545 353 567 q 279 524 310 524 q 228 545 249 524 q 207 598 207 567 q 228 650 207 629 q 280 671 250 671 q 331 650 310 671 q 353 598 353 629 z "},"À":{"ha":910,"x_min":-50,"x_max":960,"o":"m 615 17 q 690 25 668 17 q 711 68 711 33 q 638 304 711 103 l 214 304 q 154 83 154 128 q 177 27 154 38 q 260 17 200 17 l 263 0 l -50 0 l -47 17 q 16 24 -7 17 q 66 60 39 31 q 118 147 93 90 q 178 307 143 204 l 301 664 q 367 893 367 853 q 347 945 367 933 q 272 957 328 957 l 269 972 l 499 972 l 744 307 q 828 97 807 142 q 869 40 850 53 q 957 17 904 17 l 960 0 l 613 0 l 615 17 m 421 897 l 225 338 l 626 338 l 421 897 m 258 1158 q 274 1194 258 1181 q 312 1207 290 1207 q 361 1189 333 1207 l 588 1051 l 572 1017 l 318 1094 q 258 1158 258 1113 z "},"Á":{"ha":910,"x_min":-50,"x_max":960,"o":"m 615 17 q 690 25 668 17 q 711 68 711 33 q 638 304 711 103 l 214 304 q 154 83 154 128 q 177 27 154 38 q 260 17 200 17 l 263 0 l -50 0 l -47 17 q 16 24 -7 17 q 66 60 39 31 q 118 147 93 90 q 178 307 143 204 l 301 664 q 367 893 367 853 q 347 945 367 933 q 272 957 328 957 l 269 972 l 499 972 l 744 307 q 828 97 807 142 q 869 40 850 53 q 957 17 904 17 l 960 0 l 613 0 l 615 17 m 421 897 l 225 338 l 626 338 l 421 897 m 483 1189 q 533 1207 511 1207 q 570 1194 554 1207 q 586 1158 586 1181 q 526 1094 586 1113 l 272 1017 l 257 1051 l 483 1189 z "},"Â":{"ha":910,"x_min":-50,"x_max":960,"o":"m 615 17 q 690 25 668 17 q 711 68 711 33 q 638 304 711 103 l 214 304 q 154 83 154 128 q 177 27 154 38 q 260 17 200 17 l 263 0 l -50 0 l -47 17 q 16 24 -7 17 q 66 60 39 31 q 118 147 93 90 q 178 307 143 204 l 301 664 q 367 893 367 853 q 347 945 367 933 q 272 957 328 957 l 269 972 l 499 972 l 744 307 q 828 97 807 142 q 869 40 850 53 q 957 17 904 17 l 960 0 l 613 0 l 615 17 m 421 897 l 225 338 l 626 338 l 421 897 m 418 1216 q 426 1221 418 1216 q 454 1226 433 1226 q 490 1216 475 1226 q 535 1174 506 1206 l 646 1047 l 618 1017 l 454 1124 l 290 1017 l 263 1047 l 374 1174 q 418 1216 403 1206 z "},"Ã":{"ha":910,"x_min":-50,"x_max":960,"o":"m 615 17 q 690 25 668 17 q 711 68 711 33 q 638 304 711 103 l 214 304 q 154 83 154 128 q 177 27 154 38 q 260 17 200 17 l 263 0 l -50 0 l -47 17 q 16 24 -7 17 q 66 60 39 31 q 118 147 93 90 q 178 307 143 204 l 301 664 q 367 893 367 853 q 347 945 367 933 q 272 957 328 957 l 269 972 l 499 972 l 744 307 q 828 97 807 142 q 869 40 850 53 q 957 17 904 17 l 960 0 l 613 0 l 615 17 m 421 897 l 225 338 l 626 338 l 421 897 m 550 1036 q 451 1065 511 1036 q 358 1094 390 1094 q 279 1032 304 1094 l 246 1044 q 360 1188 276 1188 q 459 1158 399 1188 q 551 1129 519 1129 q 631 1192 606 1129 l 664 1179 q 550 1036 633 1036 z "},"Ä":{"ha":910,"x_min":-50,"x_max":960,"o":"m 615 17 q 690 25 668 17 q 711 68 711 33 q 638 304 711 103 l 214 304 q 154 83 154 128 q 177 27 154 38 q 260 17 200 17 l 263 0 l -50 0 l -47 17 q 16 24 -7 17 q 66 60 39 31 q 118 147 93 90 q 178 307 143 204 l 301 664 q 367 893 367 853 q 347 945 367 933 q 272 957 328 957 l 269 972 l 499 972 l 744 307 q 828 97 807 142 q 869 40 850 53 q 957 17 904 17 l 960 0 l 613 0 l 615 17 m 421 897 l 225 338 l 626 338 l 421 897 m 225 1049 q 214 1060 225 1049 q 203 1101 203 1071 q 225 1154 203 1132 q 278 1176 247 1176 q 331 1154 308 1176 q 353 1101 353 1132 q 331 1049 353 1071 q 278 1026 308 1026 q 225 1049 247 1026 m 513 1049 q 501 1060 513 1049 q 490 1101 490 1071 q 513 1154 490 1132 q 565 1176 535 1176 q 618 1154 596 1176 q 640 1101 640 1132 q 618 1049 640 1071 q 565 1026 596 1026 q 513 1049 535 1026 z "},"Å":{"ha":910,"x_min":-50,"x_max":960,"o":"m 283 1108 q 283 1134 283 1108 q 322 1199 283 1160 q 422 1239 360 1239 q 521 1199 483 1239 q 558 1108 558 1160 q 535 1022 558 1057 q 471 972 511 986 l 499 972 l 744 307 q 828 97 807 142 q 869 40 850 53 q 957 17 904 17 l 960 0 l 613 0 l 615 17 q 690 25 668 17 q 711 68 711 33 q 638 304 711 103 l 214 304 q 154 83 154 128 q 177 27 154 38 q 260 17 200 17 l 263 0 l -50 0 l -47 17 q 16 24 -7 17 q 66 60 39 31 q 118 147 93 90 q 178 307 143 204 l 301 664 q 367 893 367 853 q 347 945 367 933 q 272 957 328 957 l 269 972 l 371 972 q 307 1022 331 986 q 283 1108 283 1057 m 421 897 l 225 338 l 626 338 l 421 897 m 375 1040 q 383 1028 375 1040 q 421 1017 392 1017 q 466 1040 450 1017 q 482 1100 482 1064 q 465 1160 482 1136 q 420 1185 449 1185 q 375 1160 392 1185 q 358 1100 358 1136 q 375 1040 358 1064 z "},"Æ":{"ha":1282,"x_min":-69,"x_max":1196,"o":"m 1196 0 l 496 0 l 499 17 q 600 43 568 17 q 635 314 635 72 l 635 472 l 296 472 l 224 304 q 197 242 213 279 q 172 186 181 206 q 153 143 163 167 q 136 67 136 97 q 159 27 136 38 q 242 17 182 17 l 244 0 l -69 0 l -67 17 q 19 33 -14 17 q 186 307 85 69 l 339 664 q 404 901 404 818 q 385 945 404 933 q 310 957 365 957 l 307 972 l 1144 972 l 1144 772 l 1128 775 q 1030 904 1128 868 q 731 940 932 940 l 731 503 q 922 517 864 503 q 997 559 981 531 q 1014 654 1014 588 l 1029 657 l 1029 319 l 1014 322 q 997 418 1014 390 q 922 459 981 446 q 731 472 864 472 l 731 293 q 741 97 731 146 q 788 32 751 49 q 1179 199 1179 32 l 1196 201 l 1196 0 m 635 503 l 635 644 q 614 897 635 853 q 553 944 594 936 q 499 947 532 947 l 308 503 l 635 503 z "},"Ç":{"ha":989,"x_min":69,"x_max":947,"o":"m 565 -14 l 531 -12 l 504 -90 q 620 -123 575 -90 q 665 -220 665 -156 q 617 -322 665 -285 q 497 -358 568 -358 q 379 -304 425 -358 l 404 -276 q 485 -311 439 -311 q 557 -285 532 -311 q 582 -224 582 -260 q 450 -115 582 -131 l 488 -8 q 183 154 297 17 q 69 496 69 292 q 201 842 69 700 q 554 985 332 985 q 760 957 657 985 q 915 900 863 929 l 915 722 l 900 725 q 780 901 865 850 q 554 953 694 953 q 283 824 376 953 q 190 489 190 696 q 289 154 190 282 q 565 26 388 26 q 778 58 693 26 q 947 149 864 89 l 947 107 q 565 -14 788 -14 z "},"È":{"ha":856,"x_min":69,"x_max":769,"o":"m 769 0 l 69 0 l 72 17 q 174 43 142 17 q 208 314 208 72 l 208 658 q 199 862 208 807 q 174 931 190 917 q 72 957 142 957 l 69 972 l 718 972 l 718 772 l 701 775 q 603 904 701 868 q 304 940 506 940 l 304 503 q 496 517 438 503 q 571 559 554 531 q 588 654 588 588 l 603 657 l 603 319 l 588 322 q 571 418 588 390 q 496 459 554 446 q 304 472 438 472 l 304 293 q 315 97 304 146 q 361 32 325 49 q 753 199 753 32 l 769 201 l 769 0 m 263 1158 q 278 1194 263 1181 q 316 1207 294 1207 q 365 1189 338 1207 l 592 1051 l 576 1017 l 322 1094 q 263 1158 263 1113 z "},"É":{"ha":856,"x_min":69,"x_max":769,"o":"m 769 0 l 69 0 l 72 17 q 174 43 142 17 q 208 314 208 72 l 208 658 q 199 862 208 807 q 174 931 190 917 q 72 957 142 957 l 69 972 l 718 972 l 718 772 l 701 775 q 603 904 701 868 q 304 940 506 940 l 304 503 q 496 517 438 503 q 571 559 554 531 q 588 654 588 588 l 603 657 l 603 319 l 588 322 q 571 418 588 390 q 496 459 554 446 q 304 472 438 472 l 304 293 q 315 97 304 146 q 361 32 325 49 q 753 199 753 32 l 769 201 l 769 0 m 517 1189 q 566 1207 544 1207 q 603 1194 588 1207 q 619 1158 619 1181 q 560 1094 619 1113 l 306 1017 l 290 1051 l 517 1189 z "},"Ê":{"ha":856,"x_min":69,"x_max":769,"o":"m 769 0 l 69 0 l 72 17 q 174 43 142 17 q 208 314 208 72 l 208 658 q 199 862 208 807 q 174 931 190 917 q 72 957 142 957 l 69 972 l 718 972 l 718 772 l 701 775 q 603 904 701 868 q 304 940 506 940 l 304 503 q 496 517 438 503 q 571 559 554 531 q 588 654 588 588 l 603 657 l 603 319 l 588 322 q 571 418 588 390 q 496 459 554 446 q 304 472 438 472 l 304 293 q 315 97 304 146 q 361 32 325 49 q 753 199 753 32 l 769 201 l 769 0 m 392 1216 q 399 1221 392 1216 q 428 1226 407 1226 q 464 1216 449 1226 q 508 1174 479 1206 l 619 1047 l 592 1017 l 428 1124 l 264 1017 l 236 1047 l 347 1174 q 392 1216 376 1206 z "},"Ë":{"ha":856,"x_min":69,"x_max":769,"o":"m 769 0 l 69 0 l 72 17 q 174 43 142 17 q 208 314 208 72 l 208 658 q 199 862 208 807 q 174 931 190 917 q 72 957 142 957 l 69 972 l 718 972 l 718 772 l 701 775 q 603 904 701 868 q 304 940 506 940 l 304 503 q 496 517 438 503 q 571 559 554 531 q 588 654 588 588 l 603 657 l 603 319 l 588 322 q 571 418 588 390 q 496 459 554 446 q 304 472 438 472 l 304 293 q 315 97 304 146 q 361 32 325 49 q 753 199 753 32 l 769 201 l 769 0 m 231 1049 q 219 1060 231 1049 q 208 1101 208 1071 q 231 1154 208 1132 q 283 1176 253 1176 q 336 1154 314 1176 q 358 1101 358 1132 q 336 1049 358 1071 q 283 1026 314 1026 q 231 1049 253 1026 m 518 1049 q 507 1060 518 1049 q 496 1101 496 1071 q 518 1154 496 1132 q 571 1176 540 1176 q 624 1154 601 1176 q 646 1101 646 1132 q 624 1049 646 1071 q 571 1026 601 1026 q 518 1049 540 1026 z "},"Ì":{"ha":514,"x_min":69,"x_max":444,"o":"m 306 658 l 306 314 q 315 111 306 165 q 340 43 324 57 q 442 17 372 17 l 444 0 l 69 0 l 72 17 q 126 19 107 17 q 163 35 146 22 q 188 63 181 47 q 201 117 196 79 q 208 314 208 165 l 208 658 q 200 860 208 803 q 175 931 192 917 q 72 957 142 957 l 69 972 l 444 972 l 442 957 q 340 931 372 957 q 306 658 306 901 m 92 1158 q 108 1194 92 1181 q 145 1207 124 1207 q 194 1189 167 1207 l 421 1051 l 406 1017 l 151 1094 q 92 1158 92 1113 z "},"Í":{"ha":514,"x_min":69,"x_max":444,"o":"m 306 658 l 306 314 q 315 111 306 165 q 340 43 324 57 q 442 17 372 17 l 444 0 l 69 0 l 72 17 q 126 19 107 17 q 163 35 146 22 q 188 63 181 47 q 201 117 196 79 q 208 314 208 165 l 208 658 q 200 860 208 803 q 175 931 192 917 q 72 957 142 957 l 69 972 l 444 972 l 442 957 q 340 931 372 957 q 306 658 306 901 m 318 1189 q 367 1207 346 1207 q 405 1194 389 1207 q 421 1158 421 1181 q 361 1094 421 1113 l 107 1017 l 92 1051 l 318 1189 z "},"Î":{"ha":514,"x_min":65,"x_max":449,"o":"m 306 658 l 306 314 q 315 111 306 165 q 340 43 324 57 q 442 17 372 17 l 444 0 l 69 0 l 72 17 q 126 19 107 17 q 163 35 146 22 q 188 63 181 47 q 201 117 196 79 q 208 314 208 165 l 208 658 q 200 860 208 803 q 175 931 192 917 q 72 957 142 957 l 69 972 l 444 972 l 442 957 q 340 931 372 957 q 306 658 306 901 m 221 1216 q 228 1221 221 1216 q 257 1226 236 1226 q 293 1216 278 1226 q 338 1174 308 1206 l 449 1047 l 421 1017 l 257 1124 l 93 1017 l 65 1047 l 176 1174 q 221 1216 206 1206 z "},"Ï":{"ha":514,"x_min":39,"x_max":476,"o":"m 306 658 l 306 314 q 315 111 306 165 q 340 43 324 57 q 442 17 372 17 l 444 0 l 69 0 l 72 17 q 126 19 107 17 q 163 35 146 22 q 188 63 181 47 q 201 117 196 79 q 208 314 208 165 l 208 658 q 200 860 208 803 q 175 931 192 917 q 72 957 142 957 l 69 972 l 444 972 l 442 957 q 340 931 372 957 q 306 658 306 901 m 61 1049 q 50 1060 61 1049 q 39 1101 39 1071 q 61 1154 39 1132 q 114 1176 83 1176 q 167 1154 144 1176 q 189 1101 189 1132 q 167 1049 189 1071 q 114 1026 144 1026 q 61 1049 83 1026 m 349 1049 q 338 1060 349 1049 q 326 1101 326 1071 q 349 1154 326 1132 q 401 1176 371 1176 q 454 1154 432 1176 q 476 1101 476 1132 q 454 1049 476 1071 q 401 1026 432 1026 q 349 1049 371 1026 z "},"Ð":{"ha":1061,"x_min":69,"x_max":1013,"o":"m 69 453 l 69 522 l 208 522 l 208 658 q 199 862 208 807 q 174 931 190 917 q 72 957 142 957 l 69 972 l 350 972 q 708 931 589 972 q 824 875 763 911 q 923 789 885 839 q 987 661 961 739 q 1013 487 1013 583 q 987 313 1013 390 q 923 186 961 236 q 828 99 885 136 q 722 44 772 63 q 611 15 672 26 q 443 0 529 0 l 69 0 l 72 17 q 174 43 142 17 q 208 314 208 72 l 208 453 l 69 453 m 357 33 q 426 32 374 32 q 540 43 478 32 q 667 85 601 54 q 781 165 733 117 q 860 297 829 214 q 892 485 892 379 q 861 674 892 592 q 782 805 831 756 q 668 886 733 854 q 414 940 553 940 q 306 932 351 940 l 306 522 l 542 522 l 542 453 l 306 453 l 306 297 q 314 99 306 147 q 357 33 322 50 z "},"Ñ":{"ha":1149,"x_min":54,"x_max":1094,"o":"m 940 660 l 940 -7 l 897 -7 l 243 819 l 243 317 q 256 117 243 178 q 297 36 268 56 q 393 17 326 17 l 396 0 l 54 0 l 57 17 q 153 36 124 17 q 195 117 182 56 q 208 317 208 178 l 208 660 q 195 859 208 799 q 153 938 182 919 q 57 957 125 957 l 54 972 l 243 972 l 906 146 l 906 660 q 892 858 906 797 q 850 938 879 919 q 753 957 821 957 l 750 972 l 1094 972 l 1092 957 q 994 938 1024 957 q 953 858 965 919 q 940 660 940 797 m 669 1036 q 570 1065 631 1036 q 478 1094 510 1094 q 399 1032 424 1094 l 365 1044 q 479 1188 396 1188 q 578 1158 518 1188 q 671 1129 639 1129 q 750 1192 725 1129 l 783 1179 q 669 1036 753 1036 z "},"Ò":{"ha":1072,"x_min":49,"x_max":1024,"o":"m 532 985 q 644 985 532 985 q 890 848 756 985 q 1024 494 1024 711 q 894 131 1024 276 q 542 -14 764 -14 q 184 132 319 -14 q 49 495 49 278 q 178 849 49 713 q 532 985 308 985 m 541 18 q 630 18 541 18 q 810 147 718 18 q 903 485 903 275 q 806 824 903 694 q 531 953 708 953 q 262 825 354 953 q 169 487 169 697 q 267 147 169 276 q 541 18 364 18 m 371 1158 q 387 1194 371 1181 q 424 1207 403 1207 q 474 1189 446 1207 l 700 1051 l 685 1017 l 431 1094 q 371 1158 371 1113 z "},"Ó":{"ha":1072,"x_min":49,"x_max":1024,"o":"m 532 985 q 644 985 532 985 q 890 848 756 985 q 1024 494 1024 711 q 894 131 1024 276 q 542 -14 764 -14 q 184 132 319 -14 q 49 495 49 278 q 178 849 49 713 q 532 985 308 985 m 541 18 q 630 18 541 18 q 810 147 718 18 q 903 485 903 275 q 806 824 903 694 q 531 953 708 953 q 262 825 354 953 q 169 487 169 697 q 267 147 169 276 q 541 18 364 18 m 597 1189 q 647 1207 625 1207 q 684 1194 668 1207 q 700 1158 700 1181 q 640 1094 700 1113 l 386 1017 l 371 1051 l 597 1189 z "},"Ô":{"ha":1072,"x_min":49,"x_max":1024,"o":"m 532 985 q 644 985 532 985 q 890 848 756 985 q 1024 494 1024 711 q 894 131 1024 276 q 542 -14 764 -14 q 184 132 319 -14 q 49 495 49 278 q 178 849 49 713 q 532 985 308 985 m 541 18 q 630 18 541 18 q 810 147 718 18 q 903 485 903 275 q 806 824 903 694 q 531 953 708 953 q 262 825 354 953 q 169 487 169 697 q 267 147 169 276 q 541 18 364 18 m 500 1216 q 508 1221 500 1216 q 536 1226 515 1226 q 572 1216 557 1226 q 617 1174 588 1206 l 728 1047 l 700 1017 l 536 1124 l 372 1017 l 344 1047 l 456 1174 q 500 1216 485 1206 z "},"Õ":{"ha":1072,"x_min":49,"x_max":1024,"o":"m 532 985 q 644 985 532 985 q 890 848 756 985 q 1024 494 1024 711 q 894 131 1024 276 q 542 -14 764 -14 q 184 132 319 -14 q 49 495 49 278 q 178 849 49 713 q 532 985 308 985 m 541 18 q 630 18 541 18 q 810 147 718 18 q 903 485 903 275 q 806 824 903 694 q 531 953 708 953 q 262 825 354 953 q 169 487 169 697 q 267 147 169 276 q 541 18 364 18 m 631 1036 q 531 1065 592 1036 q 439 1094 471 1094 q 360 1032 385 1094 l 326 1044 q 440 1188 357 1188 q 540 1158 479 1188 q 632 1129 600 1129 q 711 1192 686 1129 l 744 1179 q 631 1036 714 1036 z "},"Ö":{"ha":1072,"x_min":49,"x_max":1024,"o":"m 532 985 q 644 985 532 985 q 890 848 756 985 q 1024 494 1024 711 q 894 131 1024 276 q 542 -14 764 -14 q 184 132 319 -14 q 49 495 49 278 q 178 849 49 713 q 532 985 308 985 m 541 18 q 630 18 541 18 q 810 147 718 18 q 903 485 903 275 q 806 824 903 694 q 531 953 708 953 q 262 825 354 953 q 169 487 169 697 q 267 147 169 276 q 541 18 364 18 m 339 1049 q 328 1060 339 1049 q 317 1101 317 1071 q 339 1154 317 1132 q 392 1176 361 1176 q 444 1154 422 1176 q 467 1101 467 1132 q 444 1049 467 1071 q 392 1026 422 1026 q 339 1049 361 1026 m 626 1049 q 615 1060 626 1049 q 604 1101 604 1071 q 626 1154 604 1132 q 679 1176 649 1176 q 732 1154 710 1176 q 754 1101 754 1132 q 732 1049 754 1071 q 679 1026 710 1026 q 626 1049 649 1026 z "},"×":{"ha":764,"x_min":156,"x_max":608,"o":"m 203 217 l 156 264 l 335 443 l 156 622 l 203 669 l 382 490 l 561 669 l 608 622 l 429 443 l 608 264 l 561 217 l 382 396 l 203 217 z "},"Ø":{"ha":1072,"x_min":49,"x_max":1024,"o":"m 1024 496 q 894 131 1024 276 q 542 -14 764 -14 q 425 -1 481 -14 l 381 -153 l 313 -153 l 363 15 q 132 198 215 68 q 49 496 49 328 q 178 849 49 713 q 531 985 308 985 q 646 974 588 985 l 690 1124 l 760 1124 l 710 957 q 940 785 857 908 q 1024 496 1024 663 m 903 486 q 850 750 903 638 q 697 914 797 863 l 436 32 q 542 18 489 18 q 810 147 718 18 q 903 486 903 275 m 169 486 q 222 221 169 333 q 374 56 274 108 l 635 939 q 531 953 582 953 q 262 825 354 953 q 169 486 169 697 z "},"Ù":{"ha":1100,"x_min":42,"x_max":1074,"o":"m 919 657 l 919 385 q 897 219 919 292 q 838 104 874 147 q 751 33 801 61 q 557 -14 667 -14 q 181 371 181 -14 l 181 658 q 172 861 181 807 q 146 929 163 915 q 44 956 114 956 l 42 972 l 415 972 l 413 956 q 359 953 379 956 q 322 938 339 950 q 298 909 306 925 q 285 856 290 893 q 278 658 278 807 l 278 364 q 358 106 278 186 q 572 26 438 26 q 796 113 707 26 q 885 382 885 200 l 885 657 q 872 857 885 796 q 831 937 860 918 q 735 956 803 956 l 732 972 l 1074 972 l 1071 956 q 974 937 1003 956 q 933 857 946 918 q 919 657 919 796 m 385 1158 q 401 1194 385 1181 q 438 1207 417 1207 q 488 1189 460 1207 l 714 1051 l 699 1017 l 444 1094 q 385 1158 385 1113 z "},"Ú":{"ha":1100,"x_min":42,"x_max":1074,"o":"m 919 657 l 919 385 q 897 219 919 292 q 838 104 874 147 q 751 33 801 61 q 557 -14 667 -14 q 181 371 181 -14 l 181 658 q 172 861 181 807 q 146 929 163 915 q 44 956 114 956 l 42 972 l 415 972 l 413 956 q 359 953 379 956 q 322 938 339 950 q 298 909 306 925 q 285 856 290 893 q 278 658 278 807 l 278 364 q 358 106 278 186 q 572 26 438 26 q 796 113 707 26 q 885 382 885 200 l 885 657 q 872 857 885 796 q 831 937 860 918 q 735 956 803 956 l 732 972 l 1074 972 l 1071 956 q 974 937 1003 956 q 933 857 946 918 q 919 657 919 796 m 639 1189 q 688 1207 667 1207 q 726 1194 710 1207 q 742 1158 742 1181 q 682 1094 742 1113 l 428 1017 l 413 1051 l 639 1189 z "},"Û":{"ha":1100,"x_min":42,"x_max":1074,"o":"m 919 657 l 919 385 q 897 219 919 292 q 838 104 874 147 q 751 33 801 61 q 557 -14 667 -14 q 181 371 181 -14 l 181 658 q 172 861 181 807 q 146 929 163 915 q 44 956 114 956 l 42 972 l 415 972 l 413 956 q 359 953 379 956 q 322 938 339 950 q 298 909 306 925 q 285 856 290 893 q 278 658 278 807 l 278 364 q 358 106 278 186 q 572 26 438 26 q 796 113 707 26 q 885 382 885 200 l 885 657 q 872 857 885 796 q 831 937 860 918 q 735 956 803 956 l 732 972 l 1074 972 l 1071 956 q 974 937 1003 956 q 933 857 946 918 q 919 657 919 796 m 542 1216 q 549 1221 542 1216 q 578 1226 557 1226 q 614 1216 599 1226 q 658 1174 629 1206 l 769 1047 l 742 1017 l 578 1124 l 414 1017 l 386 1047 l 497 1174 q 542 1216 526 1206 z "},"Ü":{"ha":1100,"x_min":42,"x_max":1074,"o":"m 919 657 l 919 385 q 897 219 919 292 q 838 104 874 147 q 751 33 801 61 q 557 -14 667 -14 q 181 371 181 -14 l 181 658 q 172 861 181 807 q 146 929 163 915 q 44 956 114 956 l 42 972 l 415 972 l 413 956 q 359 953 379 956 q 322 938 339 950 q 298 909 306 925 q 285 856 290 893 q 278 658 278 807 l 278 364 q 358 106 278 186 q 572 26 438 26 q 796 113 707 26 q 885 382 885 200 l 885 657 q 872 857 885 796 q 831 937 860 918 q 735 956 803 956 l 732 972 l 1074 972 l 1071 956 q 974 937 1003 956 q 933 857 946 918 q 919 657 919 796 m 381 1049 q 369 1060 381 1049 q 358 1101 358 1071 q 381 1154 358 1132 q 433 1176 403 1176 q 486 1154 464 1176 q 508 1101 508 1132 q 486 1049 508 1071 q 433 1026 464 1026 q 381 1049 403 1026 m 668 1049 q 657 1060 668 1049 q 646 1101 646 1071 q 668 1154 646 1132 q 721 1176 690 1176 q 774 1154 751 1176 q 796 1101 796 1132 q 774 1049 796 1071 q 721 1026 751 1026 q 668 1049 690 1026 z "},"Ý":{"ha":1001,"x_min":-4,"x_max":929,"o":"m 532 314 q 556 64 532 108 q 585 35 564 47 q 629 19 606 22 q 694 17 653 17 l 697 0 l 269 0 l 272 17 q 338 19 314 17 q 383 35 363 21 q 412 64 403 49 q 428 118 421 79 q 435 314 435 165 l 435 401 l 279 664 q 182 826 214 775 q 117 910 150 876 q 62 949 83 943 q -1 956 40 956 l -4 972 l 342 972 l 339 956 q 274 949 293 956 q 256 921 256 943 q 273 864 256 896 q 296 821 290 832 q 314 788 301 810 q 335 753 326 767 q 386 664 372 686 l 511 449 l 618 664 q 714 908 714 861 q 694 947 714 939 q 621 956 674 956 l 618 972 l 929 972 l 926 956 q 817 933 861 956 q 722 801 783 917 q 653 664 699 757 l 532 417 l 532 314 m 610 1189 q 659 1207 638 1207 q 697 1194 681 1207 q 713 1158 713 1181 q 653 1094 713 1113 l 399 1017 l 383 1051 l 610 1189 z "},"Þ":{"ha":829,"x_min":69,"x_max":801,"o":"m 801 496 q 715 292 801 372 q 508 211 628 211 q 306 250 389 211 q 317 94 307 140 q 354 32 328 47 q 442 17 381 17 l 444 0 l 69 0 l 72 17 q 126 19 107 17 q 163 35 146 22 q 188 63 181 47 q 201 117 196 79 q 208 314 208 165 l 208 658 q 200 860 208 803 q 175 931 192 917 q 72 957 142 957 l 69 972 l 444 972 l 442 957 q 337 926 363 957 q 307 783 311 896 l 433 783 q 686 725 583 783 q 771 636 740 694 q 801 496 801 578 m 306 283 q 476 244 378 244 q 633 308 574 244 q 693 496 693 371 q 396 751 693 751 l 306 751 l 306 283 z "},"ß":{"ha":872,"x_min":38,"x_max":833,"o":"m 590 696 q 573 686 590 696 q 527 650 556 676 q 499 592 499 624 q 533 530 499 560 q 617 476 568 500 q 715 423 665 451 q 799 345 764 394 q 833 231 833 296 q 753 49 833 113 q 563 -14 672 -14 q 361 46 453 -14 l 361 182 l 375 182 q 434 67 375 108 q 572 26 493 26 q 690 78 651 26 q 728 196 728 129 q 694 307 728 263 q 613 375 661 351 q 518 422 565 399 q 438 482 471 444 q 404 567 404 519 q 433 649 404 615 q 494 703 461 682 q 556 762 528 724 q 585 847 585 800 q 431 965 585 965 q 272 721 272 965 l 272 0 l 38 0 l 40 10 q 94 13 74 10 q 131 28 114 15 q 155 56 147 40 q 168 111 163 72 q 175 307 175 158 l 175 686 q 249 936 175 851 q 456 1021 324 1021 q 614 978 547 1021 q 681 847 681 935 q 652 756 681 796 q 590 696 624 715 z "},"à":{"ha":733,"x_min":69,"x_max":699,"o":"m 572 449 l 572 308 q 582 106 572 154 q 629 58 592 58 q 692 78 653 58 l 699 64 q 669 44 688 56 q 596 13 651 32 q 489 -7 540 -7 q 475 179 475 51 q 395 40 444 93 q 258 -14 346 -14 q 120 33 171 -14 q 69 160 69 79 q 475 385 69 383 l 475 435 q 446 588 475 535 q 338 640 417 640 q 265 618 293 640 q 228 569 238 596 q 158 497 204 497 q 111 549 111 497 q 181 636 111 601 q 349 671 250 671 q 510 615 447 671 q 572 449 572 558 m 175 154 q 201 65 175 100 q 285 29 228 29 q 390 85 343 29 q 455 210 438 142 q 475 353 472 279 q 248 296 321 351 q 175 154 175 240 m 204 964 q 218 999 204 985 q 256 1013 232 1013 q 313 985 281 1013 l 499 815 l 478 783 l 253 899 q 204 964 204 925 z "},"á":{"ha":733,"x_min":69,"x_max":699,"o":"m 572 449 l 572 308 q 582 106 572 154 q 629 58 592 58 q 692 78 653 58 l 699 64 q 669 44 688 56 q 596 13 651 32 q 489 -7 540 -7 q 475 179 475 51 q 395 40 444 93 q 258 -14 346 -14 q 120 33 171 -14 q 69 160 69 79 q 475 385 69 383 l 475 435 q 446 588 475 535 q 338 640 417 640 q 265 618 293 640 q 228 569 238 596 q 158 497 204 497 q 111 549 111 497 q 181 636 111 601 q 349 671 250 671 q 510 615 447 671 q 572 449 572 558 m 175 154 q 201 65 175 100 q 285 29 228 29 q 390 85 343 29 q 455 210 438 142 q 475 353 472 279 q 248 296 321 351 q 175 154 175 240 m 406 985 q 462 1013 438 1013 q 500 999 486 1013 q 514 964 514 985 q 465 899 514 925 l 240 783 l 219 815 l 406 985 z "},"â":{"ha":733,"x_min":69,"x_max":699,"o":"m 572 449 l 572 308 q 582 106 572 154 q 629 58 592 58 q 692 78 653 58 l 699 64 q 669 44 688 56 q 596 13 651 32 q 489 -7 540 -7 q 475 179 475 51 q 395 40 444 93 q 258 -14 346 -14 q 120 33 171 -14 q 69 160 69 79 q 475 385 69 383 l 475 435 q 446 588 475 535 q 338 640 417 640 q 265 618 293 640 q 228 569 238 596 q 158 497 204 497 q 111 549 111 497 q 181 636 111 601 q 349 671 250 671 q 510 615 447 671 q 572 449 572 558 m 175 154 q 201 65 175 100 q 285 29 228 29 q 390 85 343 29 q 455 210 438 142 q 475 353 472 279 q 248 296 321 351 q 175 154 175 240 m 310 994 q 317 999 310 994 q 346 1004 325 1004 q 382 994 367 1004 q 426 951 397 983 l 538 825 l 510 794 l 346 901 l 182 794 l 154 825 l 265 951 q 310 994 294 983 z "},"ã":{"ha":733,"x_min":69,"x_max":699,"o":"m 572 449 l 572 308 q 582 106 572 154 q 629 58 592 58 q 692 78 653 58 l 699 64 q 669 44 688 56 q 596 13 651 32 q 489 -7 540 -7 q 475 179 475 51 q 395 40 444 93 q 258 -14 346 -14 q 120 33 171 -14 q 69 160 69 79 q 475 385 69 383 l 475 435 q 446 588 475 535 q 338 640 417 640 q 265 618 293 640 q 228 569 238 596 q 158 497 204 497 q 111 549 111 497 q 181 636 111 601 q 349 671 250 671 q 510 615 447 671 q 572 449 572 558 m 175 154 q 201 65 175 100 q 285 29 228 29 q 390 85 343 29 q 455 210 438 142 q 475 353 472 279 q 248 296 321 351 q 175 154 175 240 m 440 814 q 341 843 401 814 q 249 872 281 872 q 169 810 194 872 l 136 822 q 250 965 167 965 q 349 936 289 965 q 442 907 410 907 q 521 969 496 907 l 554 957 q 440 814 524 814 z "},"ä":{"ha":733,"x_min":69,"x_max":699,"o":"m 572 449 l 572 308 q 582 106 572 154 q 629 58 592 58 q 692 78 653 58 l 699 64 q 669 44 688 56 q 596 13 651 32 q 489 -7 540 -7 q 475 179 475 51 q 395 40 444 93 q 258 -14 346 -14 q 120 33 171 -14 q 69 160 69 79 q 475 385 69 383 l 475 435 q 446 588 475 535 q 338 640 417 640 q 265 618 293 640 q 228 569 238 596 q 158 497 204 497 q 111 549 111 497 q 181 636 111 601 q 349 671 250 671 q 510 615 447 671 q 572 449 572 558 m 175 154 q 201 65 175 100 q 285 29 228 29 q 390 85 343 29 q 455 210 438 142 q 475 353 472 279 q 248 296 321 351 q 175 154 175 240 m 163 840 q 151 851 163 840 q 140 893 140 863 q 163 946 140 924 q 215 968 185 968 q 268 946 246 968 q 290 893 290 924 q 268 840 290 863 q 215 818 246 818 q 163 840 185 818 m 450 840 q 439 851 450 840 q 428 893 428 863 q 450 946 428 924 q 503 968 472 968 q 556 946 533 968 q 578 893 578 924 q 556 840 578 863 q 503 818 533 818 q 450 840 472 818 z "},"å":{"ha":733,"x_min":69,"x_max":699,"o":"m 572 449 l 572 308 q 582 106 572 154 q 629 58 592 58 q 692 78 653 58 l 699 64 q 669 44 688 56 q 596 13 651 32 q 489 -7 540 -7 q 475 179 475 51 q 395 40 444 93 q 258 -14 346 -14 q 120 33 171 -14 q 69 160 69 79 q 475 385 69 383 l 475 435 q 446 588 475 535 q 338 640 417 640 q 265 618 293 640 q 228 569 238 596 q 158 497 204 497 q 111 549 111 497 q 181 636 111 601 q 349 671 250 671 q 510 615 447 671 q 572 449 572 558 m 175 154 q 201 65 175 100 q 285 29 228 29 q 390 85 343 29 q 455 210 438 142 q 475 353 472 279 q 248 296 321 351 q 175 154 175 240 m 208 893 q 208 922 208 893 q 247 991 208 951 q 347 1031 285 1031 q 446 991 408 1031 q 483 893 483 951 q 446 795 483 835 q 347 756 408 756 q 247 795 285 756 q 208 893 208 835 m 300 832 q 308 820 300 832 q 346 808 317 808 q 391 832 375 808 q 407 892 407 856 q 390 952 407 928 q 345 976 374 976 q 300 952 317 976 q 283 892 283 928 q 300 832 283 856 z "},"æ":{"ha":1104,"x_min":69,"x_max":1035,"o":"m 1035 351 l 579 351 l 579 328 q 642 103 579 181 q 797 26 704 26 q 997 138 936 26 l 1018 126 q 776 -14 946 -14 q 597 48 675 -14 q 492 224 518 110 q 254 -14 440 -14 q 120 33 171 -14 q 69 160 69 79 q 475 392 69 388 l 475 435 q 446 588 475 535 q 338 640 417 640 q 265 618 293 640 q 228 569 238 596 q 158 497 204 497 q 111 549 111 497 q 181 636 111 601 q 343 671 250 671 q 549 563 493 671 q 759 671 625 671 q 964 581 893 671 q 1035 351 1035 492 m 175 154 q 201 65 175 100 q 278 29 228 29 q 367 61 328 29 q 428 143 406 93 q 475 351 472 243 q 248 295 321 350 q 175 154 175 240 m 765 643 q 638 574 685 643 q 582 392 592 506 l 928 392 q 765 643 918 643 z "},"ç":{"ha":625,"x_min":56,"x_max":590,"o":"m 353 -14 l 335 -12 l 308 -90 q 424 -123 379 -90 q 469 -220 469 -156 q 421 -322 469 -285 q 301 -358 372 -358 q 183 -304 229 -358 l 208 -276 q 290 -311 243 -311 q 361 -285 336 -311 q 386 -224 386 -260 q 254 -115 386 -131 l 293 -7 q 123 99 190 13 q 56 331 56 186 q 135 574 56 476 q 363 671 215 671 q 522 641 454 671 q 590 558 590 611 q 539 511 590 511 q 495 532 513 511 q 469 577 478 553 q 433 622 460 601 q 364 643 407 643 q 213 560 264 643 q 161 331 161 476 q 222 106 161 186 q 374 26 283 26 q 569 138 511 26 l 590 126 q 353 -14 519 -14 z "},"è":{"ha":686,"x_min":56,"x_max":617,"o":"m 617 351 l 161 351 l 161 328 q 224 103 161 181 q 379 26 286 26 q 579 138 518 26 l 600 126 q 358 -14 528 -14 q 144 76 233 -14 q 56 320 56 167 q 134 572 56 474 q 344 671 213 671 q 546 581 475 671 q 617 351 617 492 m 347 643 q 220 574 267 643 q 164 392 174 506 l 510 392 q 347 643 500 643 m 201 964 q 215 999 201 985 q 253 1013 229 1013 q 310 985 278 1013 l 496 815 l 475 783 l 250 899 q 201 964 201 925 z "},"é":{"ha":686,"x_min":56,"x_max":617,"o":"m 617 351 l 161 351 l 161 328 q 224 103 161 181 q 379 26 286 26 q 579 138 518 26 l 600 126 q 358 -14 528 -14 q 144 76 233 -14 q 56 320 56 167 q 134 572 56 474 q 344 671 213 671 q 546 581 475 671 q 617 351 617 492 m 347 643 q 220 574 267 643 q 164 392 174 506 l 510 392 q 347 643 500 643 m 389 985 q 445 1013 421 1013 q 483 999 469 1013 q 497 964 497 985 q 449 899 497 925 l 224 783 l 203 815 l 389 985 z "},"ê":{"ha":686,"x_min":56,"x_max":617,"o":"m 617 351 l 161 351 l 161 328 q 224 103 161 181 q 379 26 286 26 q 579 138 518 26 l 600 126 q 358 -14 528 -14 q 144 76 233 -14 q 56 320 56 167 q 134 572 56 474 q 344 671 213 671 q 546 581 475 671 q 617 351 617 492 m 347 643 q 220 574 267 643 q 164 392 174 506 l 510 392 q 347 643 500 643 m 307 994 q 315 999 307 994 q 343 1004 322 1004 q 379 994 364 1004 q 424 951 394 983 l 535 825 l 507 794 l 343 901 l 179 794 l 151 825 l 263 951 q 307 994 292 983 z "},"ë":{"ha":686,"x_min":56,"x_max":617,"o":"m 617 351 l 161 351 l 161 328 q 224 103 161 181 q 379 26 286 26 q 579 138 518 26 l 600 126 q 358 -14 528 -14 q 144 76 233 -14 q 56 320 56 167 q 134 572 56 474 q 344 671 213 671 q 546 581 475 671 q 617 351 617 492 m 347 643 q 220 574 267 643 q 164 392 174 506 l 510 392 q 347 643 500 643 m 146 840 q 135 851 146 840 q 124 893 124 863 q 146 946 124 924 q 199 968 168 968 q 251 946 229 968 q 274 893 274 924 q 251 840 274 863 q 199 818 229 818 q 146 840 168 818 m 433 840 q 422 851 433 840 q 411 893 411 863 q 433 946 411 924 q 486 968 456 968 q 539 946 517 968 q 561 893 561 924 q 539 840 561 863 q 486 818 517 818 q 433 840 456 818 z "},"ì":{"ha":440,"x_min":42,"x_max":399,"o":"m 279 657 l 279 229 q 297 50 279 83 q 396 17 314 17 l 399 0 l 60 0 l 63 17 q 164 51 146 17 q 182 232 182 85 l 182 329 q 161 581 182 538 q 137 608 154 596 q 99 624 119 621 q 44 626 79 626 l 42 642 q 279 657 163 657 m 54 964 q 68 999 54 985 q 106 1013 82 1013 q 163 985 131 1013 l 349 815 l 328 783 l 103 899 q 54 964 54 925 z "},"í":{"ha":440,"x_min":42,"x_max":399,"o":"m 279 657 l 279 229 q 297 50 279 83 q 396 17 314 17 l 399 0 l 60 0 l 63 17 q 164 51 146 17 q 182 232 182 85 l 182 329 q 161 581 182 538 q 137 608 154 596 q 99 624 119 621 q 44 626 79 626 l 42 642 q 279 657 163 657 m 253 985 q 309 1013 285 1013 q 347 999 333 1013 q 361 964 361 985 q 313 899 361 925 l 88 783 l 67 815 l 253 985 z "},"î":{"ha":440,"x_min":8,"x_max":399,"o":"m 279 657 l 279 229 q 297 50 279 83 q 396 17 314 17 l 399 0 l 60 0 l 63 17 q 164 51 146 17 q 182 232 182 85 l 182 329 q 161 581 182 538 q 137 608 154 596 q 99 624 119 621 q 44 626 79 626 l 42 642 q 279 657 163 657 m 164 994 q 172 999 164 994 q 200 1004 179 1004 q 236 994 221 1004 q 281 951 251 983 l 392 825 l 364 794 l 200 901 l 36 794 l 8 825 l 119 951 q 164 994 149 983 z "},"ï":{"ha":440,"x_min":-19,"x_max":418,"o":"m 279 657 l 279 229 q 297 50 279 83 q 396 17 314 17 l 399 0 l 60 0 l 63 17 q 164 51 146 17 q 182 232 182 85 l 182 329 q 161 581 182 538 q 137 608 154 596 q 99 624 119 621 q 44 626 79 626 l 42 642 q 279 657 163 657 m 3 840 q -8 851 3 840 q -19 893 -19 863 q 3 946 -19 924 q 56 968 25 968 q 108 946 86 968 q 131 893 131 924 q 108 840 131 863 q 56 818 86 818 q 3 840 25 818 m 290 840 q 279 851 290 840 q 268 893 268 863 q 290 946 268 924 q 343 968 313 968 q 396 946 374 968 q 418 893 418 924 q 396 840 418 863 q 343 818 374 818 q 290 840 313 818 z "},"ð":{"ha":750,"x_min":56,"x_max":738,"o":"m 307 986 q 212 966 250 986 q 131 900 174 946 l 103 926 q 201 1010 150 986 q 319 1035 253 1035 q 551 901 457 1035 l 714 985 l 738 939 l 579 858 q 683 388 683 676 q 601 94 683 201 q 374 -14 519 -14 q 142 85 229 -14 q 56 328 56 183 q 138 565 56 472 q 354 657 221 657 q 572 583 488 657 q 513 824 556 732 l 346 739 l 322 785 l 488 869 q 307 986 415 986 m 216 103 q 243 58 216 103 q 372 14 271 14 q 527 110 474 14 q 581 347 581 207 q 515 558 581 486 q 356 629 449 629 q 213 547 264 629 q 161 328 161 465 q 216 103 161 192 z "},"ñ":{"ha":875,"x_min":42,"x_max":833,"o":"m 279 671 l 279 422 q 349 597 292 522 q 500 671 406 671 q 713 449 713 671 l 713 229 q 731 51 713 85 q 831 17 750 17 l 833 0 l 496 0 l 499 17 q 599 51 582 17 q 615 242 615 86 l 615 435 q 585 579 615 531 q 491 628 556 628 q 383 584 426 628 q 319 474 340 540 q 279 214 279 344 q 297 50 279 83 q 396 17 314 17 l 399 0 l 60 0 l 63 17 q 164 51 146 17 q 182 232 182 85 l 182 343 q 161 594 182 551 q 137 622 154 610 q 99 638 119 635 q 44 640 79 640 l 42 656 q 279 671 163 671 m 560 814 q 460 843 521 814 q 368 872 400 872 q 289 810 314 872 l 256 822 q 369 965 286 965 q 469 936 408 965 q 561 907 529 907 q 640 969 615 907 l 674 957 q 560 814 643 814 z "},"ò":{"ha":739,"x_min":56,"x_max":683,"o":"m 56 328 q 56 401 56 328 q 139 572 56 474 q 365 671 222 671 q 596 572 508 671 q 683 328 683 474 q 599 84 683 182 q 372 -14 515 -14 q 142 85 229 -14 q 56 328 56 183 m 216 103 q 243 58 216 103 q 372 14 271 14 q 526 101 474 14 q 578 327 578 189 q 522 554 578 465 q 366 643 467 643 q 213 555 265 643 q 161 329 161 467 q 216 103 161 192 m 228 964 q 242 999 228 985 q 280 1013 256 1013 q 336 985 304 1013 l 522 815 l 501 783 l 276 899 q 228 964 228 925 z "},"ó":{"ha":739,"x_min":56,"x_max":683,"o":"m 56 328 q 56 401 56 328 q 139 572 56 474 q 365 671 222 671 q 596 572 508 671 q 683 328 683 474 q 599 84 683 182 q 372 -14 515 -14 q 142 85 229 -14 q 56 328 56 183 m 216 103 q 243 58 216 103 q 372 14 271 14 q 526 101 474 14 q 578 327 578 189 q 522 554 578 465 q 366 643 467 643 q 213 555 265 643 q 161 329 161 467 q 216 103 161 192 m 401 985 q 458 1013 433 1013 q 496 999 482 1013 q 510 964 510 985 q 461 899 510 925 l 236 783 l 215 815 l 401 985 z "},"ô":{"ha":739,"x_min":56,"x_max":683,"o":"m 56 328 q 56 401 56 328 q 139 572 56 474 q 365 671 222 671 q 596 572 508 671 q 683 328 683 474 q 599 84 683 182 q 372 -14 515 -14 q 142 85 229 -14 q 56 328 56 183 m 216 103 q 243 58 216 103 q 372 14 271 14 q 526 101 474 14 q 578 327 578 189 q 522 554 578 465 q 366 643 467 643 q 213 555 265 643 q 161 329 161 467 q 216 103 161 192 m 333 994 q 341 999 333 994 q 369 1004 349 1004 q 406 994 390 1004 q 450 951 421 983 l 561 825 l 533 794 l 369 901 l 206 794 l 178 825 l 289 951 q 333 994 318 983 z "},"õ":{"ha":739,"x_min":56,"x_max":683,"o":"m 56 328 q 56 401 56 328 q 139 572 56 474 q 365 671 222 671 q 596 572 508 671 q 683 328 683 474 q 599 84 683 182 q 372 -14 515 -14 q 142 85 229 -14 q 56 328 56 183 m 216 103 q 243 58 216 103 q 372 14 271 14 q 526 101 474 14 q 578 327 578 189 q 522 554 578 465 q 366 643 467 643 q 213 555 265 643 q 161 329 161 467 q 216 103 161 192 m 464 814 q 365 843 425 814 q 272 872 304 872 q 193 810 218 872 l 160 822 q 274 965 190 965 q 373 936 313 965 q 465 907 433 907 q 544 969 519 907 l 578 957 q 464 814 547 814 z "},"ö":{"ha":739,"x_min":56,"x_max":683,"o":"m 56 328 q 56 401 56 328 q 139 572 56 474 q 365 671 222 671 q 596 572 508 671 q 683 328 683 474 q 599 84 683 182 q 372 -14 515 -14 q 142 85 229 -14 q 56 328 56 183 m 216 103 q 243 58 216 103 q 372 14 271 14 q 526 101 474 14 q 578 327 578 189 q 522 554 578 465 q 366 643 467 643 q 213 555 265 643 q 161 329 161 467 q 216 103 161 192 m 172 840 q 161 851 172 840 q 150 893 150 863 q 172 946 150 924 q 225 968 194 968 q 278 946 256 968 q 300 893 300 924 q 278 840 300 863 q 225 818 256 818 q 172 840 194 818 m 460 840 q 449 851 460 840 q 438 893 438 863 q 460 946 438 924 q 513 968 482 968 q 565 946 543 968 q 588 893 588 924 q 565 840 588 863 q 513 818 543 818 q 460 840 482 818 z "},"÷":{"ha":764,"x_min":136,"x_max":628,"o":"m 136 410 l 136 476 l 628 476 l 628 410 l 136 410 m 310 197 q 310 212 310 197 q 331 249 310 228 q 383 271 353 271 q 435 249 414 271 q 456 197 456 228 q 434 144 456 165 q 383 124 413 124 q 331 144 353 124 q 310 197 310 165 m 310 688 q 310 704 310 688 q 331 741 310 719 q 383 763 353 763 q 435 741 414 763 q 456 688 456 719 q 434 636 456 657 q 383 615 413 615 q 331 636 353 615 q 310 688 310 657 z "},"ø":{"ha":739,"x_min":56,"x_max":683,"o":"m 56 328 q 139 572 56 474 q 364 671 222 671 q 431 664 396 671 l 451 739 l 518 739 l 492 646 q 633 522 582 608 q 683 328 683 436 q 599 84 683 182 q 372 -14 515 -14 q 308 -8 347 -14 l 288 -82 l 222 -82 l 247 10 q 106 133 157 47 q 56 328 56 218 m 161 328 q 260 53 161 132 l 422 635 q 365 643 394 643 q 213 555 265 643 q 161 328 161 467 m 372 14 q 526 101 474 14 q 578 328 578 189 q 479 603 578 521 l 317 22 q 372 14 342 14 z "},"ù":{"ha":860,"x_min":28,"x_max":825,"o":"m 558 152 q 569 179 558 152 q 591 261 581 206 q 601 381 601 317 q 599 488 601 444 q 589 565 596 531 q 565 614 582 599 q 464 640 535 640 l 461 656 q 699 671 582 671 l 699 308 q 708 106 699 154 q 756 58 718 58 q 818 78 779 58 l 825 64 q 796 44 814 56 q 722 13 778 32 q 615 -7 667 -7 q 601 179 601 74 q 381 -14 538 -14 q 168 208 168 -14 l 168 343 q 147 594 168 551 q 123 622 140 610 q 85 638 106 635 q 31 640 65 640 l 28 656 q 265 671 149 671 l 265 222 q 295 78 265 126 q 388 29 325 29 q 494 64 451 29 q 558 152 536 99 m 238 964 q 251 999 238 985 q 290 1013 265 1013 q 346 985 314 1013 l 532 815 l 511 783 l 286 899 q 238 964 238 925 z "},"ú":{"ha":860,"x_min":28,"x_max":825,"o":"m 558 152 q 569 179 558 152 q 591 261 581 206 q 601 381 601 317 q 599 488 601 444 q 589 565 596 531 q 565 614 582 599 q 464 640 535 640 l 461 656 q 699 671 582 671 l 699 308 q 708 106 699 154 q 756 58 718 58 q 818 78 779 58 l 825 64 q 796 44 814 56 q 722 13 778 32 q 615 -7 667 -7 q 601 179 601 74 q 381 -14 538 -14 q 168 208 168 -14 l 168 343 q 147 594 168 551 q 123 622 140 610 q 85 638 106 635 q 31 640 65 640 l 28 656 q 265 671 149 671 l 265 222 q 295 78 265 126 q 388 29 325 29 q 494 64 451 29 q 558 152 536 99 m 463 985 q 519 1013 494 1013 q 557 999 543 1013 q 571 964 571 985 q 522 899 571 925 l 297 783 l 276 815 l 463 985 z "},"û":{"ha":860,"x_min":28,"x_max":825,"o":"m 558 152 q 569 179 558 152 q 591 261 581 206 q 601 381 601 317 q 599 488 601 444 q 589 565 596 531 q 565 614 582 599 q 464 640 535 640 l 461 656 q 699 671 582 671 l 699 308 q 708 106 699 154 q 756 58 718 58 q 818 78 779 58 l 825 64 q 796 44 814 56 q 722 13 778 32 q 615 -7 667 -7 q 601 179 601 74 q 381 -14 538 -14 q 168 208 168 -14 l 168 343 q 147 594 168 551 q 123 622 140 610 q 85 638 106 635 q 31 640 65 640 l 28 656 q 265 671 149 671 l 265 222 q 295 78 265 126 q 388 29 325 29 q 494 64 451 29 q 558 152 536 99 m 379 994 q 387 999 379 994 q 415 1004 394 1004 q 451 994 436 1004 q 496 951 467 983 l 607 825 l 579 794 l 415 901 l 251 794 l 224 825 l 335 951 q 379 994 364 983 z "},"ü":{"ha":860,"x_min":28,"x_max":825,"o":"m 558 152 q 569 179 558 152 q 591 261 581 206 q 601 381 601 317 q 599 488 601 444 q 589 565 596 531 q 565 614 582 599 q 464 640 535 640 l 461 656 q 699 671 582 671 l 699 308 q 708 106 699 154 q 756 58 718 58 q 818 78 779 58 l 825 64 q 796 44 814 56 q 722 13 778 32 q 615 -7 667 -7 q 601 179 601 74 q 381 -14 538 -14 q 168 208 168 -14 l 168 343 q 147 594 168 551 q 123 622 140 610 q 85 638 106 635 q 31 640 65 640 l 28 656 q 265 671 149 671 l 265 222 q 295 78 265 126 q 388 29 325 29 q 494 64 451 29 q 558 152 536 99 m 206 840 q 194 851 206 840 q 183 893 183 863 q 206 946 183 924 q 258 968 228 968 q 311 946 289 968 q 333 893 333 924 q 311 840 333 863 q 258 818 289 818 q 206 840 228 818 m 493 840 q 482 851 493 840 q 471 893 471 863 q 493 946 471 924 q 546 968 515 968 q 599 946 576 968 q 621 893 621 924 q 599 840 621 863 q 546 818 576 818 q 493 840 515 818 z "},"ý":{"ha":694,"x_min":-35,"x_max":694,"o":"m 135 -292 q 251 -238 204 -292 q 346 -65 297 -185 l 139 457 q 56 607 93 574 q -32 640 19 640 l -35 657 l 310 657 l 307 640 q 240 625 258 640 q 221 578 221 610 q 286 350 221 514 l 393 81 l 501 414 q 533 565 533 514 q 436 640 533 640 l 433 657 l 694 657 l 692 640 q 612 603 635 640 q 526 376 589 567 l 401 -4 q 258 -293 340 -192 q 88 -394 176 -394 q 21 -378 47 -394 q -6 -334 -6 -362 q 12 -290 -6 -306 q 49 -274 29 -274 q 94 -283 69 -274 q 135 -292 119 -292 m 426 985 q 483 1013 458 1013 q 521 999 507 1013 q 535 964 535 985 q 486 899 535 925 l 261 783 l 240 815 l 426 985 z "},"þ":{"ha":778,"x_min":35,"x_max":722,"o":"m 250 489 q 326 618 274 565 q 466 671 378 671 q 614 617 554 671 q 722 326 722 521 q 633 83 722 181 q 408 -14 544 -14 q 250 24 310 -14 l 250 -140 q 252 -261 250 -224 q 267 -326 254 -299 q 302 -358 281 -353 q 368 -364 324 -364 l 371 -381 l 35 -381 l 38 -364 q 135 -328 118 -364 q 153 -140 153 -293 l 153 796 q 151 903 153 871 q 135 958 149 935 q 102 985 122 982 q 38 989 82 989 l 35 1004 q 250 1021 133 1021 l 250 489 m 390 26 q 569 122 518 26 q 617 326 617 210 q 586 519 617 431 q 531 598 568 568 q 441 628 493 628 q 349 591 389 628 q 289 500 308 554 q 250 317 250 392 l 250 100 q 390 26 293 26 z "},"ÿ":{"ha":694,"x_min":-35,"x_max":694,"o":"m 135 -292 q 251 -238 204 -292 q 346 -65 297 -185 l 139 457 q 56 607 93 574 q -32 640 19 640 l -35 657 l 310 657 l 307 640 q 240 625 258 640 q 221 578 221 610 q 286 350 221 514 l 393 81 l 501 414 q 533 565 533 514 q 436 640 533 640 l 433 657 l 694 657 l 692 640 q 612 603 635 640 q 526 376 589 567 l 401 -4 q 258 -293 340 -192 q 88 -394 176 -394 q 21 -378 47 -394 q -6 -334 -6 -362 q 12 -290 -6 -306 q 49 -274 29 -274 q 94 -283 69 -274 q 135 -292 119 -292 m 150 840 q 139 851 150 840 q 128 893 128 863 q 150 946 128 924 q 203 968 172 968 q 256 946 233 968 q 278 893 278 924 q 256 840 278 863 q 203 818 233 818 q 150 840 172 818 m 438 840 q 426 851 438 840 q 415 893 415 863 q 438 946 415 924 q 490 968 460 968 q 543 946 521 968 q 565 893 565 924 q 543 840 565 863 q 490 818 521 818 q 438 840 460 818 z "},"ı":{"ha":440,"x_min":42,"x_max":399,"o":"m 279 657 l 279 229 q 297 50 279 83 q 396 17 314 17 l 399 0 l 60 0 l 63 17 q 164 51 146 17 q 182 232 182 85 l 182 329 q 161 581 182 538 q 137 608 154 596 q 99 624 119 621 q 44 626 79 626 l 42 642 q 279 657 163 657 z "},"Ł":{"ha":769,"x_min":51,"x_max":735,"o":"m 208 658 q 189 910 208 865 q 128 954 171 949 q 74 957 107 957 l 71 972 l 444 972 l 442 957 q 340 931 372 957 q 306 658 306 901 l 306 600 l 443 671 l 467 625 l 306 543 l 306 293 q 315 94 306 143 q 361 28 325 44 q 719 199 719 28 l 735 201 l 735 0 l 71 0 l 74 17 q 127 19 107 17 q 164 35 147 22 q 188 63 181 47 q 201 117 196 79 q 208 314 208 165 l 208 493 l 75 425 l 51 471 l 208 550 l 208 658 z "},"ł":{"ha":417,"x_min":-1,"x_max":414,"o":"m 157 772 q 140 958 157 926 q 119 978 135 968 q 87 989 104 988 q 38 990 69 990 l 35 1006 q 254 1022 139 1022 l 254 601 l 390 671 l 414 625 l 254 543 l 254 242 q 272 52 254 88 q 372 17 290 17 l 375 0 l 35 0 l 38 17 q 139 51 121 17 q 157 242 157 86 l 157 493 l 22 425 l -1 471 l 157 551 l 157 772 z "},"Œ":{"ha":1329,"x_min":49,"x_max":1243,"o":"m 542 32 q 644 58 613 32 q 682 329 682 90 l 682 640 q 669 844 682 792 q 638 911 657 896 q 531 939 604 939 q 261 817 353 939 q 169 486 169 694 q 266 155 169 278 q 542 32 363 32 m 1243 0 l 543 0 q 183 140 318 0 q 49 495 49 279 q 178 842 49 711 q 531 972 307 972 l 1192 972 l 1192 772 l 1175 775 q 1077 904 1175 868 q 778 940 979 940 l 778 503 q 969 517 911 503 q 1044 559 1028 531 q 1061 654 1061 588 l 1076 657 l 1076 319 l 1061 322 q 1044 418 1061 390 q 969 459 1028 446 q 778 472 911 472 l 778 293 q 788 97 778 146 q 835 32 799 49 q 1226 199 1226 32 l 1243 201 l 1243 0 z "},"œ":{"ha":1208,"x_min":56,"x_max":1139,"o":"m 1139 351 l 683 351 l 683 314 q 749 100 686 174 q 901 26 811 26 q 1101 138 1040 26 l 1122 126 q 881 -14 1050 -14 q 738 22 804 -14 q 629 125 671 57 q 372 -14 544 -14 q 142 85 229 -14 q 56 328 56 183 q 139 572 56 474 q 364 671 222 671 q 626 531 536 671 q 868 671 707 671 q 1068 581 997 671 q 1139 351 1139 492 m 161 329 q 161 260 161 329 q 216 103 161 192 q 371 14 271 14 q 523 98 471 14 q 578 314 575 182 l 578 328 q 522 554 578 465 q 366 643 467 643 q 213 555 265 643 q 161 329 161 467 m 869 643 q 742 574 789 643 q 686 392 696 506 l 1032 392 q 869 643 1022 643 z "},"Š":{"ha":729,"x_min":76,"x_max":653,"o":"m 114 294 q 180 89 114 160 q 342 18 246 18 q 499 65 438 18 q 560 211 560 111 q 464 372 560 301 q 371 433 422 403 q 268 494 319 463 q 175 561 217 526 q 79 749 79 642 q 158 921 79 857 q 366 985 236 985 q 607 928 496 985 q 586 689 607 858 l 565 694 q 501 890 565 825 q 355 954 438 954 q 222 906 272 954 q 172 793 172 858 q 208 681 172 728 q 297 604 243 635 q 413 537 350 574 q 528 465 475 500 q 617 372 582 429 q 653 244 653 315 q 562 51 653 117 q 343 -14 471 -14 q 198 8 272 -14 q 76 74 124 31 q 93 299 76 163 l 114 294 m 400 1027 q 392 1022 400 1027 q 364 1017 385 1017 q 328 1027 343 1017 q 283 1069 313 1038 l 172 1196 l 200 1226 l 364 1119 l 528 1226 l 556 1196 l 444 1069 q 400 1027 415 1038 z "},"š":{"ha":571,"x_min":69,"x_max":513,"o":"m 265 26 q 298 26 265 26 q 374 57 332 26 q 415 142 415 88 q 294 279 415 229 q 194 322 244 300 q 108 388 143 344 q 72 503 72 431 q 137 623 72 575 q 286 671 201 671 q 475 632 407 671 q 458 454 475 568 l 442 458 q 400 592 442 550 q 299 633 358 633 q 205 603 240 633 q 169 514 169 572 q 292 385 169 435 q 392 341 342 364 q 477 276 442 318 q 513 172 513 233 q 443 35 513 83 q 260 -14 374 -14 q 69 46 147 -14 q 83 210 69 115 l 100 207 q 149 72 100 117 q 265 26 197 26 m 328 808 q 320 802 328 808 q 292 797 313 797 q 256 808 271 797 q 211 850 240 818 l 100 976 l 128 1007 l 292 900 l 456 1007 l 483 976 l 372 850 q 328 808 343 818 z "},"Ÿ":{"ha":1001,"x_min":-4,"x_max":929,"o":"m 532 314 q 556 64 532 108 q 585 35 564 47 q 629 19 606 22 q 694 17 653 17 l 697 0 l 269 0 l 272 17 q 338 19 314 17 q 383 35 363 21 q 412 64 403 49 q 428 118 421 79 q 435 314 435 165 l 435 401 l 279 664 q 182 826 214 775 q 117 910 150 876 q 62 949 83 943 q -1 956 40 956 l -4 972 l 342 972 l 339 956 q 274 949 293 956 q 256 921 256 943 q 273 864 256 896 q 296 821 290 832 q 314 788 301 810 q 335 753 326 767 q 386 664 372 686 l 511 449 l 618 664 q 714 908 714 861 q 694 947 714 939 q 621 956 674 956 l 618 972 l 929 972 l 926 956 q 817 933 861 956 q 722 801 783 917 q 653 664 699 757 l 532 417 l 532 314 m 304 1049 q 293 1060 304 1049 q 282 1101 282 1071 q 304 1154 282 1132 q 357 1176 326 1176 q 410 1154 388 1176 q 432 1101 432 1132 q 410 1049 432 1071 q 357 1026 388 1026 q 304 1049 326 1026 m 592 1049 q 581 1060 592 1049 q 569 1101 569 1071 q 592 1154 569 1132 q 644 1176 614 1176 q 697 1154 675 1176 q 719 1101 719 1132 q 697 1049 719 1071 q 644 1026 675 1026 q 592 1049 614 1026 z "},"Ž":{"ha":935,"x_min":78,"x_max":847,"o":"m 129 972 l 847 972 l 847 933 l 189 32 l 411 32 q 717 64 621 32 q 797 115 772 82 q 822 199 822 147 l 838 201 l 838 0 l 78 0 l 78 44 l 722 940 q 311 915 415 940 q 164 840 197 888 q 146 775 146 813 l 129 772 l 129 972 m 503 1027 q 495 1022 503 1027 q 467 1017 488 1017 q 431 1027 446 1017 q 386 1069 415 1038 l 275 1196 l 303 1226 l 467 1119 l 631 1226 l 658 1196 l 547 1069 q 503 1027 518 1038 z "},"ž":{"ha":633,"x_min":56,"x_max":578,"o":"m 321 31 q 483 58 443 31 q 524 174 524 85 l 540 178 q 557 0 557 64 l 56 0 l 56 19 l 446 626 l 319 626 q 157 599 197 626 q 117 483 117 572 l 100 479 q 83 657 83 593 l 578 657 l 578 642 l 178 31 l 321 31 m 367 787 q 359 782 367 787 q 331 776 351 776 q 294 787 310 776 q 250 829 279 797 l 139 956 l 167 986 l 331 879 l 494 986 l 522 956 l 411 829 q 367 787 382 797 z "},"ƒ":{"ha":764,"x_min":40,"x_max":772,"o":"m 350 97 l 350 626 l 222 626 l 222 657 l 350 657 l 350 688 q 597 1035 350 1035 q 739 992 686 1035 q 772 928 772 967 q 756 892 772 907 q 714 876 740 876 q 670 895 688 876 q 646 936 653 914 q 618 977 639 958 q 564 996 597 996 q 470 930 493 996 q 447 722 447 864 l 447 657 l 631 657 l 631 626 l 447 626 l 447 183 q 365 -132 447 -8 q 133 -256 283 -256 q 67 -240 93 -256 q 40 -195 40 -224 q 59 -151 40 -167 q 99 -135 78 -135 q 160 -156 121 -135 q 233 -178 199 -178 q 326 -113 301 -178 q 350 97 350 -49 z "},"ˆ":{"ha":522,"x_min":69,"x_max":453,"o":"m 225 994 q 233 999 225 994 q 261 1004 240 1004 q 297 994 282 1004 q 342 951 313 983 l 453 825 l 425 794 l 261 901 l 97 794 l 69 825 l 181 951 q 225 994 210 983 z "},"ˇ":{"ha":522,"x_min":69,"x_max":453,"o":"m 297 808 q 290 802 297 808 q 261 797 282 797 q 225 808 240 797 q 181 850 210 818 l 69 976 l 97 1007 l 261 900 l 425 1007 l 453 976 l 342 850 q 297 808 313 818 z "},"˘":{"ha":522,"x_min":69,"x_max":453,"o":"m 453 976 q 261 797 383 797 q 69 976 139 797 l 108 999 q 259 890 174 890 q 414 999 344 890 l 453 976 z "},"˙":{"ha":440,"x_min":147,"x_max":306,"o":"m 171 838 q 159 849 171 838 q 147 893 147 861 q 171 949 147 925 q 226 972 194 972 q 282 949 258 972 q 306 893 306 925 q 282 838 306 861 q 226 814 258 814 q 171 838 194 814 z "},"˚":{"ha":511,"x_min":118,"x_max":393,"o":"m 118 893 q 118 922 118 893 q 156 991 118 951 q 256 1031 194 1031 q 356 991 318 1031 q 393 893 393 951 q 356 795 393 835 q 256 756 318 756 q 156 795 194 756 q 118 893 118 835 m 210 832 q 218 820 210 832 q 256 808 226 808 q 301 832 285 808 q 317 892 317 856 q 300 952 317 928 q 255 976 283 976 q 210 952 226 976 q 193 892 193 928 q 210 832 193 856 z "},"˛":{"ha":439,"x_min":69,"x_max":369,"o":"m 275 0 q 178 -49 210 -15 q 146 -124 146 -83 q 172 -185 146 -164 q 248 -206 197 -206 q 344 -164 299 -206 l 369 -192 q 210 -267 308 -267 q 107 -233 144 -267 q 69 -145 69 -200 q 121 -40 69 -90 q 269 28 172 11 l 275 0 z "},"˜":{"ha":571,"x_min":76,"x_max":494,"o":"m 381 814 q 281 843 342 814 q 189 872 221 872 q 110 810 135 872 l 76 822 q 190 965 107 965 q 290 936 229 965 q 382 907 350 907 q 461 969 436 907 l 494 957 q 381 814 464 814 z "},"˝":{"ha":583,"x_min":69,"x_max":514,"o":"m 258 1013 q 292 998 278 1013 q 306 963 306 983 q 295 928 306 943 q 251 889 285 913 l 96 783 l 69 811 l 193 974 q 258 1013 224 1013 m 467 1013 q 500 998 486 1013 q 514 963 514 983 q 503 928 514 943 q 460 889 493 913 l 304 783 l 278 811 l 401 974 q 467 1013 432 1013 z "},"π":{"ha":817,"x_min":42,"x_max":768,"o":"m 42 588 l 42 657 l 736 657 l 736 588 l 625 588 l 625 97 q 668 33 625 33 q 747 103 703 33 l 768 89 q 700 8 731 31 q 624 -14 669 -14 q 525 106 525 -14 l 525 588 l 253 588 l 253 0 l 153 0 l 153 588 l 42 588 z "},"–":{"ha":1149,"x_min":0,"x_max":1149,"o":"m 0 385 l 0 454 l 1149 454 l 1149 385 l 0 385 z "},"—":{"ha":1353,"x_min":0,"x_max":1351,"o":"m 0 385 l 0 454 l 1351 454 l 1351 385 l 0 385 z "},"‘":{"ha":267,"x_min":35,"x_max":197,"o":"m 99 863 q 131 828 99 836 q 197 753 197 813 q 176 700 197 721 q 120 679 154 679 q 60 708 86 679 q 35 795 35 736 q 69 913 35 854 q 167 1013 103 971 l 188 986 q 99 863 99 928 z "},"’":{"ha":267,"x_min":69,"x_max":232,"o":"m 168 825 q 136 860 168 851 q 69 935 69 875 q 91 988 69 967 q 147 1008 113 1008 q 206 980 181 1008 q 232 892 232 951 q 198 775 232 833 q 100 675 164 717 l 79 701 q 168 825 168 760 z "},"‚":{"ha":253,"x_min":47,"x_max":210,"o":"m 146 -50 q 114 -15 146 -24 q 47 60 47 0 q 69 113 47 92 q 124 133 90 133 q 184 105 158 133 q 210 17 210 76 q 176 -100 210 -42 q 78 -200 142 -158 l 57 -174 q 146 -50 146 -115 z "},"“":{"ha":497,"x_min":35,"x_max":428,"o":"m 99 863 q 131 828 99 836 q 197 753 197 813 q 176 700 197 721 q 120 679 154 679 q 60 708 86 679 q 35 795 35 736 q 69 913 35 854 q 167 1013 103 971 l 188 986 q 99 863 99 928 m 329 863 q 361 828 329 836 q 428 753 428 813 q 406 700 428 721 q 351 679 385 679 q 291 708 317 679 q 265 795 265 736 q 299 913 265 854 q 397 1013 333 971 l 418 986 q 329 863 329 928 z "},"”":{"ha":497,"x_min":69,"x_max":463,"o":"m 399 825 q 367 860 399 851 q 300 935 300 875 q 322 988 300 967 q 377 1008 343 1008 q 437 980 411 1008 q 463 892 463 951 q 428 775 463 833 q 331 675 394 717 l 310 701 q 399 825 399 760 m 168 825 q 136 860 168 851 q 69 935 69 875 q 91 988 69 967 q 147 1008 113 1008 q 206 980 181 1008 q 232 892 232 951 q 198 775 232 833 q 100 675 164 717 l 79 701 q 168 825 168 760 z "},"„":{"ha":483,"x_min":47,"x_max":440,"o":"m 376 -50 q 344 -15 376 -24 q 278 60 278 0 q 299 113 278 92 q 355 133 321 133 q 415 105 389 133 q 440 17 440 76 q 406 -100 440 -42 q 308 -200 372 -158 l 288 -174 q 376 -50 376 -115 m 146 -50 q 114 -15 146 -24 q 47 60 47 0 q 69 113 47 92 q 124 133 90 133 q 184 105 158 133 q 210 17 210 76 q 176 -100 210 -42 q 78 -200 142 -158 l 57 -174 q 146 -50 146 -115 z "},"†":{"ha":775,"x_min":56,"x_max":719,"o":"m 56 653 q 74 697 56 681 q 119 714 92 714 q 375 668 146 714 q 343 821 361 724 q 325 957 325 918 q 388 1021 325 1021 q 432 1003 415 1021 q 449 957 449 985 q 399 668 449 883 q 656 714 628 714 q 701 697 683 714 q 719 653 719 681 q 656 590 719 590 q 399 636 628 590 l 449 390 q 426 51 449 331 q 388 -228 404 -228 q 347 46 368 -228 q 325 390 325 319 l 375 636 q 119 590 150 590 q 56 653 56 590 z "},"‡":{"ha":775,"x_min":56,"x_max":719,"o":"m 656 203 q 719 140 719 203 q 701 96 719 113 q 656 79 683 79 q 399 125 628 79 q 449 -164 449 -90 q 432 -210 449 -192 q 388 -228 415 -228 q 325 -164 325 -228 q 343 -28 325 -125 q 375 125 361 69 q 119 79 146 79 q 74 96 92 79 q 56 140 56 113 q 119 203 56 203 q 375 156 182 203 l 325 396 l 375 636 q 119 590 150 590 q 56 653 56 590 q 74 697 56 681 q 119 714 92 714 q 375 668 146 714 q 343 821 361 724 q 325 957 325 918 q 388 1021 325 1021 q 432 1003 415 1021 q 449 957 449 985 q 399 668 449 883 q 656 714 628 714 q 701 697 683 714 q 719 653 719 681 q 656 590 719 590 q 399 636 628 590 l 449 396 l 399 156 q 656 203 614 203 z "},"•":{"ha":489,"x_min":139,"x_max":350,"o":"m 139 478 q 139 500 139 478 q 170 553 139 522 q 245 585 201 585 q 319 553 289 585 q 350 477 350 522 q 319 401 350 432 q 245 371 289 371 q 170 402 201 371 q 139 478 139 433 z "},"…":{"ha":721,"x_min":50,"x_max":671,"o":"m 50 56 q 50 71 50 56 q 70 107 50 86 q 120 128 90 128 q 170 107 150 128 q 190 56 190 86 q 170 6 190 26 q 121 -14 150 -14 q 71 6 92 -14 q 50 56 50 26 m 290 56 q 290 71 290 56 q 310 107 290 86 q 360 128 331 128 q 410 107 390 128 q 431 56 431 86 q 410 6 431 26 q 361 -14 390 -14 q 311 6 332 -14 q 290 56 290 26 m 531 56 q 531 71 531 56 q 551 107 531 86 q 601 128 571 128 q 651 107 631 128 q 671 56 671 86 q 651 6 671 26 q 601 -14 631 -14 q 551 6 572 -14 q 531 56 531 26 z "},"‰":{"ha":1774,"x_min":167,"x_max":1704,"o":"m 447 -56 l 867 949 l 938 949 l 518 -56 l 447 -56 m 167 624 q 167 690 167 624 q 222 830 167 756 q 366 904 278 904 q 509 830 454 904 q 564 624 564 756 q 509 420 564 493 q 366 347 454 347 q 222 420 278 347 q 167 624 167 493 m 281 449 q 298 416 281 449 q 367 382 315 382 q 451 449 418 382 q 483 625 483 517 q 450 803 483 733 q 367 872 417 872 q 282 803 317 872 q 247 625 247 733 q 281 449 247 517 m 821 269 q 821 334 821 269 q 876 474 821 400 q 1020 549 932 549 q 1163 474 1108 549 q 1218 269 1218 400 q 1163 65 1218 138 q 1020 -8 1108 -8 q 876 65 932 -8 q 821 269 821 138 m 935 94 q 952 60 935 94 q 1021 26 969 26 q 1105 94 1072 26 q 1138 269 1138 161 q 1104 447 1138 378 q 1021 517 1071 517 q 936 447 971 517 q 901 269 901 378 q 935 94 901 161 m 1307 269 q 1307 334 1307 269 q 1363 474 1307 400 q 1506 549 1418 549 q 1649 474 1594 549 q 1704 269 1704 400 q 1649 65 1704 138 q 1506 -8 1594 -8 q 1363 65 1418 -8 q 1307 269 1307 138 m 1422 94 q 1439 60 1422 94 q 1507 26 1456 26 q 1591 94 1558 26 q 1624 269 1624 161 q 1590 447 1624 378 q 1507 517 1557 517 q 1422 447 1457 517 q 1388 269 1388 378 q 1422 94 1388 161 z "},"‹":{"ha":401,"x_min":42,"x_max":290,"o":"m 47 388 q 44 393 47 388 q 42 407 42 397 q 47 426 42 417 q 69 453 53 435 q 106 494 85 471 q 251 671 174 568 l 290 642 l 163 407 l 290 172 l 251 143 q 129 294 174 246 q 69 361 85 343 q 47 388 53 379 z "},"›":{"ha":401,"x_min":111,"x_max":360,"o":"m 354 426 q 357 421 354 426 q 360 407 360 417 q 354 388 360 397 q 333 361 349 379 q 296 319 317 343 q 150 143 228 246 l 111 172 l 239 407 l 111 642 l 150 671 q 272 519 228 568 q 333 453 317 471 q 354 426 349 435 z "},"⁄":{"ha":490,"x_min":0,"x_max":490,"o":"m 0 -56 l 419 949 l 490 949 l 71 -56 l 0 -56 z "},"₀":{"ha":542,"x_min":71,"x_max":468,"o":"m 71 -9 q 71 57 71 -9 q 126 197 71 122 q 270 271 182 271 q 413 197 358 271 q 468 -9 468 122 q 413 -213 468 -140 q 270 -286 358 -286 q 126 -213 182 -286 q 71 -9 71 -140 m 185 -184 q 202 -218 185 -184 q 271 -251 219 -251 q 355 -184 322 -251 q 388 -8 388 -117 q 354 169 388 100 q 271 239 321 239 q 186 169 221 239 q 151 -8 151 100 q 185 -184 151 -117 z "},"₁":{"ha":542,"x_min":110,"x_max":426,"o":"m 328 -86 q 343 -230 328 -203 q 425 -257 358 -257 l 426 -278 l 149 -278 l 150 -257 q 233 -230 218 -257 q 247 -86 247 -203 l 247 132 q 222 182 247 182 q 121 147 203 182 l 110 176 q 308 274 251 239 l 328 265 l 328 -86 z "},"₂":{"ha":542,"x_min":93,"x_max":446,"o":"m 267 271 q 302 271 267 271 q 385 240 338 271 q 432 136 432 208 q 369 -20 432 64 q 175 -233 306 -104 q 354 -214 294 -232 q 414 -149 414 -196 l 446 -149 l 446 -278 l 93 -278 l 93 -260 q 280 -36 211 -142 q 349 142 349 69 q 328 213 349 186 q 269 239 308 239 q 201 195 231 239 q 149 151 171 151 q 115 162 126 151 q 103 188 103 172 q 150 247 103 224 q 267 271 197 271 z "},"₃":{"ha":542,"x_min":83,"x_max":442,"o":"m 418 150 q 384 68 418 101 q 300 18 350 35 q 406 -30 371 10 q 442 -117 442 -69 q 382 -237 442 -189 q 246 -286 322 -286 q 83 -215 139 -286 l 113 -190 q 235 -244 161 -244 q 322 -212 286 -244 q 358 -128 358 -181 q 161 -3 358 -3 l 161 24 q 280 56 225 24 q 335 150 335 89 q 263 239 335 239 q 213 217 232 239 q 177 173 193 194 q 141 151 161 151 q 108 162 121 151 q 96 188 96 172 q 144 247 96 224 q 263 271 193 271 q 418 150 418 271 z "},"₄":{"ha":542,"x_min":60,"x_max":485,"o":"m 304 -126 l 304 143 l 115 -126 l 304 -126 m 60 -162 l 60 -129 l 342 272 l 383 267 l 383 -126 l 485 -126 l 485 -162 l 385 -162 q 405 -240 386 -224 q 481 -257 424 -257 l 482 -278 l 206 -278 l 207 -257 q 283 -241 265 -257 q 303 -162 300 -225 l 60 -162 z "},"₅":{"ha":542,"x_min":88,"x_max":447,"o":"m 256 43 q 394 4 340 43 q 447 -112 447 -35 q 388 -237 447 -189 q 251 -286 328 -286 q 88 -217 144 -286 l 118 -190 q 242 -244 167 -244 q 328 -212 292 -244 q 364 -128 364 -181 q 233 1 364 1 q 142 -10 188 1 l 119 13 l 133 247 q 343 265 294 256 q 392 307 392 274 l 424 307 l 424 196 l 183 196 l 174 35 q 256 43 207 43 z "},"₆":{"ha":542,"x_min":83,"x_max":467,"o":"m 294 271 q 406 247 360 271 q 453 188 453 224 q 440 163 453 174 q 406 151 426 151 q 372 173 386 151 q 340 217 357 194 q 296 239 324 239 q 201 167 239 239 q 164 -24 164 94 q 197 -197 164 -143 q 278 -251 229 -251 q 354 -213 326 -251 q 382 -112 382 -175 q 289 7 382 7 q 200 -12 243 7 l 190 25 q 312 49 249 49 q 421 8 375 49 q 467 -110 467 -32 q 410 -237 467 -187 q 273 -286 353 -286 q 138 -221 193 -286 q 83 -22 83 -156 q 141 191 83 111 q 294 271 199 271 z "},"₇":{"ha":542,"x_min":114,"x_max":475,"o":"m 283 -160 q 289 -204 283 -181 q 294 -245 294 -228 q 279 -274 294 -262 q 244 -286 264 -286 q 209 -272 224 -286 q 194 -233 194 -258 q 256 -17 194 -151 q 403 219 318 117 q 202 200 258 218 q 146 132 146 182 l 114 132 l 114 264 l 475 264 l 475 246 q 335 28 386 140 q 283 -160 283 -85 z "},"₈":{"ha":542,"x_min":88,"x_max":453,"o":"m 453 -136 q 401 -245 453 -204 q 269 -286 350 -286 q 138 -245 188 -286 q 88 -144 88 -204 q 120 -50 88 -83 q 211 7 153 -17 q 103 142 103 49 q 150 237 103 203 q 268 271 197 271 q 388 237 339 271 q 436 142 436 203 q 331 7 436 60 q 453 -136 453 -40 m 268 239 q 249 239 268 239 q 209 212 231 239 q 188 138 188 185 q 216 61 188 92 q 285 25 244 31 q 329 65 307 35 q 351 141 351 96 q 328 213 351 186 q 268 239 306 239 m 270 -250 q 291 -250 270 -250 q 340 -219 313 -250 q 368 -137 368 -189 q 333 -52 368 -85 q 250 -12 299 -19 q 197 -58 224 -25 q 169 -139 169 -90 q 199 -219 169 -187 q 270 -250 228 -250 z "},"₉":{"ha":542,"x_min":83,"x_max":460,"o":"m 117 -190 q 235 -244 172 -244 q 338 -174 299 -244 q 378 15 378 -104 q 347 185 378 133 q 271 236 317 236 q 168 101 168 236 q 267 -8 168 -8 q 342 7 303 -8 l 351 -29 q 234 -50 297 -50 q 127 -10 171 -50 q 83 106 83 31 q 138 226 83 182 q 274 271 193 271 q 407 206 354 271 q 460 8 460 140 q 397 -205 460 -124 q 239 -286 333 -286 q 88 -217 144 -286 l 117 -190 z "},"€":{"ha":764,"x_min":26,"x_max":711,"o":"m 26 513 l 26 565 l 140 565 q 248 813 165 718 q 459 907 331 907 q 690 854 588 907 q 671 635 690 760 l 653 639 q 594 814 653 757 q 450 871 535 871 q 310 790 365 871 q 238 565 254 708 l 540 565 l 540 513 l 233 513 q 232 455 232 492 q 235 371 232 418 l 540 371 l 540 318 l 240 318 q 319 105 260 183 q 469 26 378 26 q 571 43 525 26 q 640 77 617 60 q 693 125 663 94 l 711 107 q 450 -14 603 -14 q 245 77 325 -14 q 142 318 165 168 l 26 318 l 26 371 l 135 371 q 132 456 132 421 q 135 513 132 490 l 26 513 z "},"™":{"ha":1378,"x_min":64,"x_max":1293,"o":"m 64 972 l 518 972 l 518 818 l 506 819 q 463 904 506 878 q 332 932 419 931 l 332 561 q 347 421 332 449 q 428 393 363 393 l 429 379 l 154 379 l 156 393 q 236 420 222 393 q 250 561 250 447 l 250 932 q 122 904 164 931 q 79 819 79 878 l 64 818 l 64 972 m 1211 790 l 1211 561 q 1224 421 1211 449 q 1292 393 1238 393 l 1293 379 l 1051 379 l 1053 393 q 1119 420 1107 393 q 1131 561 1131 447 l 1131 861 l 917 372 l 693 789 l 693 563 q 710 423 693 453 q 782 393 726 393 l 783 379 l 574 379 l 575 393 q 646 422 631 393 q 661 563 661 451 l 661 790 q 646 929 661 900 q 575 958 631 958 l 574 972 l 688 972 l 939 496 l 1144 972 l 1293 972 l 1292 958 q 1224 931 1238 958 q 1211 790 1211 903 z "},"Ω":{"ha":1029,"x_min":111,"x_max":918,"o":"m 815 515 q 736 775 815 676 q 515 874 657 874 q 294 775 374 874 q 215 515 215 676 q 413 181 215 251 l 400 14 l 146 14 l 111 215 l 128 213 q 200 85 143 124 q 365 46 257 46 l 374 153 q 181 292 247 193 q 115 524 115 390 q 222 800 115 693 q 515 907 328 907 q 809 800 703 907 q 915 524 915 693 q 849 292 915 390 q 657 153 783 193 l 665 46 q 830 85 774 46 q 901 213 886 124 l 918 215 l 883 14 l 631 14 l 618 181 q 815 515 815 251 z "},"∂":{"ha":750,"x_min":43,"x_max":690,"o":"m 301 14 q 488 138 407 14 q 569 425 569 263 q 520 576 569 524 q 403 629 471 629 q 217 513 290 629 q 143 228 143 397 q 183 72 143 131 q 301 14 224 14 m 429 999 q 353 976 386 999 q 303 926 319 953 q 221 854 257 854 q 185 869 200 854 q 171 903 171 883 q 247 996 171 957 q 438 1035 322 1035 q 622 920 554 1035 q 690 611 690 806 q 642 292 690 443 q 572 138 614 204 q 459 29 531 72 q 297 -14 388 -14 q 110 61 178 -14 q 43 253 43 136 q 147 539 43 421 q 407 657 251 657 q 597 583 526 657 q 600 657 600 633 q 429 999 600 999 z "},"∆":{"ha":806,"x_min":69,"x_max":736,"o":"m 736 0 l 69 0 l 357 893 l 449 893 l 736 0 m 375 808 l 138 69 l 613 69 l 375 808 z "},"∏":{"ha":833,"x_min":42,"x_max":792,"o":"m 42 824 l 42 893 l 792 893 l 792 824 l 681 824 l 681 -218 l 581 -218 l 581 824 l 253 824 l 253 -218 l 153 -218 l 153 824 l 42 824 z "},"∑":{"ha":833,"x_min":79,"x_max":732,"o":"m 90 893 l 694 893 l 694 692 l 678 694 q 642 792 678 758 q 224 861 567 861 l 549 379 l 147 -186 q 573 -147 431 -186 q 715 -19 715 -107 l 732 -17 l 732 -218 l 79 -218 l 79 -201 l 454 326 l 90 864 l 90 893 z "},"−":{"ha":764,"x_min":136,"x_max":628,"o":"m 136 410 l 136 476 l 628 476 l 628 410 l 136 410 z "},"√":{"ha":694,"x_min":42,"x_max":831,"o":"m 201 299 q 97 425 151 425 q 50 418 69 425 l 42 433 l 231 503 l 393 81 l 649 1021 l 831 1021 l 828 1004 q 706 982 736 1004 q 643 856 675 960 q 611 740 635 828 l 408 -4 l 319 -4 l 201 299 z "},"∞":{"ha":1069,"x_min":69,"x_max":1000,"o":"m 206 581 q 185 555 206 581 q 164 446 164 529 q 206 310 164 363 q 321 258 249 258 q 444 314 393 258 q 517 446 496 369 q 444 578 496 522 q 321 633 393 633 q 206 581 249 633 m 535 382 q 449 251 508 304 q 298 199 390 199 q 138 270 206 199 q 69 446 69 342 q 138 622 69 550 q 298 693 206 693 q 449 640 390 693 q 535 510 508 588 q 620 640 561 588 q 772 693 679 693 q 932 622 864 693 q 1000 446 1000 550 q 932 270 1000 342 q 772 199 864 199 q 620 251 679 199 q 535 382 561 304 m 863 310 q 884 336 863 310 q 906 446 906 363 q 863 581 906 529 q 749 633 821 633 q 625 578 676 633 q 553 446 574 522 q 625 314 574 369 q 749 258 676 258 q 863 310 821 258 z "},"∫":{"ha":713,"x_min":0,"x_max":708,"o":"m 78 -256 q 21 -239 42 -256 q 0 -198 0 -222 q 14 -162 0 -174 q 43 -150 28 -150 q 100 -164 58 -150 q 178 -178 142 -178 q 261 -113 236 -178 q 294 97 286 -49 l 317 468 q 406 786 328 665 q 631 907 483 907 q 688 890 667 907 q 708 849 708 874 q 694 813 708 825 q 665 801 681 801 q 608 815 650 801 q 531 829 567 829 q 447 765 472 829 q 414 554 422 700 l 392 183 q 303 -135 381 -14 q 78 -256 225 -256 z "},"≈":{"ha":764,"x_min":136,"x_max":628,"o":"m 504 332 q 379 285 463 332 q 235 238 296 238 q 136 285 175 238 l 136 351 q 249 304 176 304 q 371 351 289 304 q 513 399 453 399 q 628 351 574 399 l 628 285 q 504 332 574 332 m 504 582 q 379 535 463 582 q 235 488 296 488 q 136 535 175 488 l 136 601 q 249 554 176 554 q 371 601 289 554 q 513 649 453 649 q 628 601 574 649 l 628 535 q 504 582 574 582 z "},"≠":{"ha":764,"x_min":136,"x_max":628,"o":"m 136 535 l 136 601 l 411 601 l 557 949 l 628 949 l 482 601 l 628 601 l 628 535 l 454 535 l 378 351 l 628 351 l 628 285 l 350 285 l 208 -56 l 138 -56 l 279 285 l 136 285 l 136 351 l 307 351 l 383 535 l 136 535 z "},"≤":{"ha":764,"x_min":136,"x_max":628,"o":"m 136 410 l 136 476 l 628 671 l 628 604 l 211 443 l 628 282 l 628 215 l 136 410 m 136 0 l 136 67 l 628 67 l 628 0 l 136 0 z "},"≥":{"ha":764,"x_min":136,"x_max":628,"o":"m 628 476 l 628 410 l 136 215 l 136 282 l 551 443 l 136 604 l 136 671 l 628 476 m 136 0 l 136 67 l 628 67 l 628 0 l 136 0 z "},"◊":{"ha":694,"x_min":75,"x_max":642,"o":"m 568 390 l 324 822 l 151 504 l 393 71 l 568 390 m 642 447 l 394 0 l 333 0 l 75 447 l 322 893 l 383 893 l 642 447 z "},"":{"ha":1338,"x_min":167,"x_max":1171,"o":"m 846 -124 l 814 -122 q 770 -139 794 -122 q 733 -156 746 -156 l 669 -142 q 637 -150 658 -142 q 603 -158 615 -158 q 569 -141 592 -158 q 529 -124 547 -124 l 496 -126 q 450 -103 475 -126 l 425 -76 q 390 -67 408 -68 q 360 -58 372 -65 q 338 -26 347 -50 q 320 5 328 -1 q 293 19 313 11 q 265 39 274 26 q 256 72 258 51 q 247 101 253 92 q 228 119 242 110 q 197 172 197 144 l 201 207 q 184 244 201 219 q 167 281 167 268 q 175 313 167 293 q 183 345 183 333 q 175 375 183 357 q 167 406 167 393 q 184 447 167 418 q 201 488 201 475 l 200 522 q 223 563 200 543 q 249 590 246 583 q 256 619 253 597 q 264 650 258 642 q 291 667 269 658 q 319 682 313 675 q 336 710 326 689 q 355 740 346 732 q 390 753 364 747 q 424 763 417 758 q 453 790 432 767 q 493 815 474 814 l 529 813 q 569 828 547 813 q 606 844 590 844 l 667 828 l 729 844 q 769 827 747 844 q 808 810 792 810 l 847 814 q 888 791 869 814 q 915 763 906 768 q 944 754 924 758 q 976 743 965 750 q 993 717 986 736 q 1008 690 1000 697 q 1043 669 1015 683 q 1077 643 1071 654 q 1084 610 1083 632 q 1088 581 1085 588 q 1115 555 1092 575 q 1139 513 1139 535 l 1138 478 q 1154 434 1138 460 q 1171 396 1171 408 q 1163 365 1171 383 q 1156 338 1156 347 q 1163 308 1156 328 q 1170 276 1171 288 q 1153 248 1169 265 q 1136 211 1136 231 l 1139 167 q 1117 126 1139 144 q 1091 101 1094 108 q 1081 68 1088 94 q 1067 33 1075 42 q 1042 16 1060 24 q 1018 1 1025 8 q 999 -28 1011 -6 q 976 -58 986 -51 q 942 -72 967 -65 q 911 -82 918 -78 q 885 -105 904 -86 q 846 -124 867 -124 m 669 -8 l 715 -18 q 739 -8 724 -18 q 776 6 760 6 l 797 4 q 826 18 814 4 q 844 35 839 32 q 867 42 849 38 q 892 53 885 47 q 909 74 900 58 q 923 95 918 90 q 940 106 928 100 q 958 117 953 111 q 968 143 964 124 q 976 168 972 163 q 994 186 979 174 q 1010 218 1010 199 l 1008 246 q 1020 274 1008 261 q 1033 296 1032 288 l 1022 340 l 1033 379 q 1021 410 1033 390 q 1008 442 1008 429 l 1010 465 q 993 496 1010 482 q 974 515 976 510 q 970 537 971 521 q 965 560 969 553 q 941 578 961 568 q 915 594 921 589 q 904 614 910 600 q 892 633 899 628 q 869 642 885 639 q 847 648 854 644 q 828 668 840 651 q 799 685 815 685 l 771 682 q 743 694 758 682 q 714 707 728 707 l 668 694 l 624 707 q 596 695 613 707 q 565 683 579 683 l 542 685 q 512 667 526 685 q 491 647 497 650 q 467 640 485 643 q 442 631 449 636 q 428 610 435 625 q 415 589 421 594 q 395 578 410 583 q 375 565 381 572 q 369 544 372 560 q 364 522 367 528 q 344 502 361 517 q 328 472 328 488 l 329 450 q 317 418 329 439 q 306 386 306 397 l 317 344 l 306 299 q 317 270 306 288 q 329 242 329 253 l 326 219 q 344 188 326 204 q 364 167 361 172 q 369 147 367 161 q 376 123 371 132 q 396 108 382 114 q 415 98 410 103 q 428 75 421 93 q 444 51 436 57 q 466 46 453 46 q 488 42 479 46 q 512 20 496 38 q 543 3 528 3 l 564 4 q 594 -8 578 4 q 619 -21 611 -19 l 669 -8 m 503 510 q 538 545 503 510 q 669 579 572 579 q 836 510 767 579 q 906 343 906 442 q 836 176 906 244 q 669 107 767 107 q 503 176 572 107 q 433 343 433 244 q 503 510 433 442 m 728 406 l 801 406 l 801 500 l 536 500 l 536 406 l 610 406 l 610 163 l 728 163 l 728 406 z "},"ﬁ":{"ha":875,"x_min":49,"x_max":833,"o":"m 481 626 l 283 626 l 283 314 q 292 111 283 165 q 318 43 301 57 q 419 17 350 17 l 422 0 l 49 0 l 51 17 q 105 19 85 17 q 142 35 125 22 q 166 63 158 47 q 179 117 174 79 q 186 314 186 165 l 186 626 l 58 626 l 58 657 l 186 657 q 258 948 186 861 q 465 1035 329 1035 q 628 992 543 1035 q 713 888 713 950 q 694 844 713 863 q 646 826 675 826 q 594 853 617 826 q 560 913 572 881 q 520 972 547 944 q 453 999 493 999 q 283 750 283 999 l 283 657 q 520 664 368 657 q 714 671 672 671 l 714 229 q 731 50 714 83 q 831 17 749 17 l 833 0 l 494 0 l 497 17 q 599 51 581 17 q 617 232 617 85 l 617 329 q 608 537 617 486 q 583 600 600 588 q 481 626 551 626 z "},"ﬂ":{"ha":879,"x_min":49,"x_max":838,"o":"m 717 1035 l 717 242 q 735 52 717 88 q 835 17 753 17 l 838 0 l 497 0 l 500 17 q 601 51 583 17 q 619 242 619 86 l 619 824 q 566 948 619 900 q 445 996 513 996 q 331 946 378 996 q 283 801 283 896 l 283 657 l 467 657 l 467 626 l 283 626 l 283 314 q 292 111 283 165 q 318 43 301 57 q 419 17 350 17 l 422 0 l 49 0 l 51 17 q 105 19 85 17 q 142 35 125 22 q 166 63 158 47 q 179 117 174 79 q 186 314 186 165 l 186 626 l 58 626 l 58 657 l 186 657 l 186 713 q 260 954 186 874 q 438 1035 335 1035 q 548 1008 496 1035 q 628 936 600 982 q 696 1035 663 971 l 717 1035 z "}}}
